<svg width="23" height="20" viewBox="0 0 23 20" fill="none" xmlns="http://www.w3.org/2000/svg">
<path d="M19.635 4.00446H17.3616L16.1065 2.01376C15.6329 1.26724 14.804 0.819336 13.9515 0.819336H8.74165C7.88913 0.819336 7.06029 1.26724 6.58667 2.01376L5.33157 4.00446H3.05817C1.61362 4.00446 0.453247 5.22377 0.453247 6.74168V16.3966C0.453247 17.9145 1.61362 19.1338 3.05817 19.1338H19.635C21.0795 19.1338 22.2399 17.9145 22.2399 16.3966V6.74168C22.2399 5.22377 21.0795 4.00446 19.635 4.00446ZM11.3466 16.8943C8.10226 16.8943 5.47365 14.1322 5.47365 10.7231C5.47365 7.31401 8.10226 4.57679 11.3466 4.57679C14.5909 4.57679 17.2195 7.33889 17.2195 10.748C17.2195 14.1322 14.5909 16.8943 11.3466 16.8943ZM19.3034 7.86145C19.2798 7.86145 19.2561 7.86145 19.2087 7.86145H18.2615C17.8352 7.83657 17.5037 7.46331 17.5274 7.0154C17.551 6.59237 17.8589 6.26889 18.2615 6.244H19.2087C19.635 6.21912 19.9902 6.56749 20.0139 7.0154C20.0376 7.46331 19.7297 7.83657 19.3034 7.86145Z" fill="#000"/>
<path d="M11.3464 7.31348C9.5466 7.31348 8.07837 8.85627 8.07837 10.7474C8.07837 12.6386 9.5466 14.1565 11.3464 14.1565C13.1461 14.1565 14.6144 12.6137 14.6144 10.7226C14.6144 8.83139 13.1461 7.31348 11.3464 7.31348Z" fill="#000"/>
</svg>
