<svg width="20" height="20" viewBox="0 0 20 20" fill="none" xmlns="http://www.w3.org/2000/svg">
<path d="M9.73392 9.71488C12.342 9.71488 14.4563 7.6009 14.4563 4.99318C14.4563 2.38546 12.342 0.271484 9.73392 0.271484C7.12582 0.271484 5.01154 2.38546 5.01154 4.99318C5.01154 7.6009 7.12582 9.71488 9.73392 9.71488Z" fill="#000"/>
<path d="M9.73389 9.71484H10.5925C15.3345 9.71484 19.1787 13.5584 19.1787 18.2997C19.1787 18.7739 18.7943 19.1582 18.32 19.1582H1.14774C0.673535 19.1582 0.289124 18.7739 0.289124 18.2997C0.289124 13.5584 4.13328 9.71484 8.87527 9.71484H9.73389Z" fill="#000"/>
<path fill-rule="evenodd" clip-rule="evenodd" d="M9.73389 8.77054C11.8203 8.77054 13.5118 7.07936 13.5118 4.99318C13.5118 2.907 11.8203 1.21582 9.73389 1.21582C7.64741 1.21582 5.95599 2.907 5.95599 4.99318C5.95599 7.07936 7.64741 8.77054 9.73389 8.77054ZM12.3412 8.93061C13.6159 8.08505 14.4563 6.63725 14.4563 4.99318C14.4563 2.38546 12.342 0.271484 9.73389 0.271484C7.1258 0.271484 5.01151 2.38546 5.01151 4.99318C5.01151 6.63725 5.85189 8.08505 7.12659 8.93061C7.64643 9.27539 8.2385 9.52007 8.87527 9.63707C9.1537 9.68816 9.44063 9.71488 9.73389 9.71488H8.87527C8.21423 9.71488 7.57069 9.78958 6.95254 9.93095C3.13625 10.8039 0.289124 14.2194 0.289124 18.2998C0.289124 18.7739 0.673535 19.1583 1.14774 19.1583H18.32C18.7943 19.1583 19.1787 18.7739 19.1787 18.2998C19.1787 14.2194 16.3315 10.8039 12.5153 9.93095C11.8971 9.78958 11.2536 9.71488 10.5925 9.71488H9.73389C10.0272 9.71488 10.3141 9.68816 10.5925 9.63707C11.2293 9.52007 11.8214 9.27539 12.3412 8.93061ZM10.5925 10.6592H8.87527C4.68356 10.6592 1.2801 14.0337 1.23407 18.2139H18.2337C18.1877 14.0337 14.7842 10.6592 10.5925 10.6592Z" fill="#000"/>
</svg>
