<svg width="15" height="22" viewBox="0 0 15 22" fill="none" xmlns="http://www.w3.org/2000/svg">
<path d="M14.5774 13.1216C14.3844 12.6466 14.0836 12.2388 13.6796 11.9027C13.2711 11.5666 12.7459 11.3291 12.104 11.1902C12.8582 10.881 13.4148 10.4239 13.7784 9.82345C14.142 9.22299 14.3216 8.54186 14.3216 7.78007C14.3216 6.3013 13.7515 5.18999 12.6113 4.44613C11.893 3.97561 10.9952 3.65297 9.91787 3.47821H10.0346V0.587891H8.25246V3.33033C8.11779 3.32585 7.98761 3.32585 7.84845 3.32585H6.87434V0.587891H5.0967V3.32585H0.535889V5.60673L2.21028 5.96074V16.8274L0.535889 17.1814V19.4534H5.0967V21.909H6.87883V19.4534H8.25694V21.909H10.0346V19.3861C11.3903 19.2383 12.4766 18.8619 13.2801 18.2479C14.3395 17.4413 14.8692 16.2494 14.8692 14.6675C14.8647 14.1164 14.766 13.601 14.5774 13.1216ZM9.78769 6.7539C10.2141 7.05861 10.4251 7.55153 10.4251 8.2237C10.4251 8.83761 10.1962 9.2902 9.7428 9.58148C9.28941 9.87275 8.6026 10.0206 7.68235 10.0206H6.10672V6.29682H7.84845C8.71482 6.29234 9.36124 6.44918 9.78769 6.7539ZM10.4072 16.0432C10.0211 16.3479 9.44204 16.4958 8.66993 16.4958H6.10672V12.5838H8.85847C9.36123 12.5838 9.76973 12.66 10.0795 12.8124C10.3892 12.9647 10.6182 13.1932 10.7663 13.498C10.9144 13.8027 10.9862 14.1925 10.9862 14.6541C10.9907 15.2814 10.7977 15.7385 10.4072 16.0432Z" fill="#000"/>
</svg>
