<svg width="16" height="21" viewBox="0 0 16 21" fill="none" xmlns="http://www.w3.org/2000/svg">
<path d="M2.09292 20.9616H14.0006C14.9855 20.9616 15.7868 20.1618 15.7868 19.1786V6.6182H11.6191C10.6341 6.6182 9.83292 5.81838 9.83292 4.83518V0.674805H2.09292C1.10799 0.674805 0.306763 1.47463 0.306763 2.45782V19.1786C0.306763 20.1618 1.10799 20.9616 2.09292 20.9616ZM4.47445 9.03518H11.6191C11.9482 9.03518 12.2145 9.30101 12.2145 9.62952C12.2145 9.95804 11.9482 10.2239 11.6191 10.2239H4.47445C4.14537 10.2239 3.87907 9.95804 3.87907 9.62952C3.87907 9.30101 4.14537 9.03518 4.47445 9.03518ZM4.47445 11.4125H11.6191C11.9482 11.4125 12.2145 11.6784 12.2145 12.0069C12.2145 12.3354 11.9482 12.6012 11.6191 12.6012H4.47445C4.14537 12.6012 3.87907 12.3354 3.87907 12.0069C3.87907 11.6784 4.14537 11.4125 4.47445 11.4125ZM4.47445 13.7899H11.6191C11.9482 13.7899 12.2145 14.0557 12.2145 14.3842C12.2145 14.7128 11.9482 14.9786 11.6191 14.9786H4.47445C4.14537 14.9786 3.87907 14.7128 3.87907 14.3842C3.87907 14.0557 4.14537 13.7899 4.47445 13.7899ZM4.47445 16.1673H9.23753C9.56662 16.1673 9.83292 16.4331 9.83292 16.7616C9.83292 17.0901 9.56662 17.3559 9.23753 17.3559H4.47445C4.14537 17.3559 3.87907 17.0901 3.87907 16.7616C3.87907 16.4331 4.14537 16.1673 4.47445 16.1673Z" fill="#000"/>
<path d="M11.6191 5.42894H15.4379L11.0237 1.02246V4.8346C11.0237 5.16251 11.2906 5.42894 11.6191 5.42894Z" fill="#000"/>
</svg>
