<svg width="20" height="20" viewBox="0 0 20 20" fill="none" xmlns="http://www.w3.org/2000/svg">
<path d="M15.4405 0.819336H4.89431C3.78716 0.819336 2.72535 1.25909 1.94248 2.04185C1.1596 2.82461 0.719788 3.88626 0.719788 4.99325V15.5379C0.715637 15.5522 0.715637 15.5675 0.719788 15.5818C0.731362 16.6812 1.17628 17.7316 1.95791 18.5049C2.73953 19.2782 3.79473 19.7119 4.89431 19.7118H15.4405C16.5355 19.7096 17.5859 19.2773 18.3651 18.508C19.1444 17.7388 19.5901 16.6942 19.6062 15.5994V4.99325C19.6062 3.88778 19.1676 2.82746 18.3866 2.04495C17.6057 1.26244 16.5461 0.821663 15.4405 0.819336ZM18.2967 13.7804L14.6231 9.58017C14.3897 9.33173 14.1079 9.13372 13.795 8.99837C13.4821 8.86302 13.1448 8.79319 12.8039 8.79319C12.463 8.79319 12.1257 8.86302 11.8128 8.99837C11.5 9.13372 11.2181 9.33173 10.9847 9.58017L8.46243 12.4624L7.63631 11.4606C7.40867 11.1876 7.12378 10.9679 6.80182 10.8172C6.47985 10.6664 6.12868 10.5883 5.77316 10.5883C5.41764 10.5883 5.06647 10.6664 4.7445 10.8172C4.42253 10.9679 4.13765 11.1876 3.91 11.4606L2.03806 13.7189V4.99325C2.04038 4.23655 2.34205 3.5115 2.8772 2.97643C3.41235 2.44136 4.1375 2.13973 4.89431 2.13742H15.4405C16.1973 2.13973 16.9224 2.44136 17.4576 2.97643C17.9927 3.5115 18.2944 4.23655 18.2967 4.99325V13.7804Z" fill="#000"/>
<path d="M5.77326 7.62914C6.74401 7.62914 7.53095 6.8423 7.53095 5.8717C7.53095 4.90109 6.74401 4.11426 5.77326 4.11426C4.80251 4.11426 4.01556 4.90109 4.01556 5.8717C4.01556 6.8423 4.80251 7.62914 5.77326 7.62914Z" fill="#000"/>
</svg>
