<svg width="18" height="24" viewBox="0 0 18 24" fill="none" xmlns="http://www.w3.org/2000/svg">
<path d="M9.3467 0.982422C4.60524 0.982422 0.746704 4.86089 0.746704 9.62933C0.746704 16.4047 8.5383 23.4005 8.86988 23.6943C9.00653 23.8154 9.17662 23.8755 9.3467 23.8755C9.51679 23.8755 9.68688 23.8154 9.82353 23.6952C10.1551 23.4005 17.9467 16.4047 17.9467 9.62933C17.9467 4.86089 14.0882 0.982422 9.3467 0.982422ZM9.3467 14.3367C6.71224 14.3367 4.56893 12.1972 4.56893 9.56733C4.56893 6.93749 6.71224 4.79794 9.3467 4.79794C11.9812 4.79794 14.1245 6.93749 14.1245 9.56733C14.1245 12.1972 11.9812 14.3367 9.3467 14.3367Z" fill="#000"/>
</svg>
