<svg width="23" height="19" viewBox="0 0 23 19" fill="none" xmlns="http://www.w3.org/2000/svg">
<path d="M21.1048 8.22358H4.06989L10.2772 2.01628C10.3892 1.90809 10.4785 1.77869 10.54 1.63561C10.6015 1.49253 10.6338 1.33864 10.6352 1.18293C10.6365 1.02721 10.6069 0.872788 10.5479 0.728663C10.4889 0.584537 10.4018 0.453599 10.2917 0.343487C10.1816 0.233375 10.0507 0.146296 9.90655 0.0873295C9.76243 0.0283632 9.608 -0.00130885 9.45229 4.42792e-05C9.29657 0.0013974 9.14268 0.0337489 8.99961 0.095211C8.85653 0.156673 8.72712 0.246015 8.61894 0.358024L0.409768 8.56719C0.189914 8.78712 0.0664063 9.08535 0.0664062 9.39632C0.0664062 9.70729 0.189914 10.0055 0.409768 10.2254L8.61894 18.4346C8.84012 18.6482 9.13636 18.7664 9.44384 18.7638C9.75133 18.7611 10.0455 18.6378 10.2629 18.4203C10.4803 18.2029 10.6037 17.9088 10.6063 17.6013C10.609 17.2938 10.4908 16.9975 10.2772 16.7764L4.06989 10.5691H21.1048C21.4158 10.5691 21.7141 10.4455 21.9341 10.2256C22.154 10.0056 22.2776 9.70735 22.2776 9.39632C22.2776 9.08529 22.154 8.787 21.9341 8.56707C21.7141 8.34714 21.4158 8.22358 21.1048 8.22358Z" fill="#181822"/>
</svg>
