<svg width="50" height="50" viewBox="0 0 50 50" fill="none" xmlns="http://www.w3.org/2000/svg">
<rect x="0.75" y="0.75" width="48.5" height="48.5" rx="24.25" fill="#31A08A" stroke="#31A08A" stroke-width="1.5"/>
<path fill-rule="evenodd" clip-rule="evenodd" d="M17.7659 25.704C17.9925 26.0351 18.125 26.4357 18.125 26.8672C18.125 28.0063 17.2016 28.9297 16.0625 28.9297C14.9234 28.9297 14 28.0063 14 26.8672C14 25.7281 14.9234 24.8047 16.0625 24.8047C16.1164 24.8047 16.1698 24.8068 16.2226 24.8108C16.8436 23.4165 17.7844 22.1812 18.9752 21.2088C20.4759 19.9832 22.3064 19.2302 24.2352 19.0449C26.164 18.8596 28.1043 19.2505 29.811 20.168C31.2561 20.9449 32.4786 22.0699 33.3714 23.4353C33.6398 23.8458 33.472 24.3861 33.0389 24.6163C32.6058 24.8464 32.072 24.6785 31.7954 24.2734C31.0732 23.2159 30.1055 22.3428 28.9699 21.7323C27.5727 20.9812 25.9841 20.6612 24.405 20.8129C22.8259 20.9645 21.3273 21.5811 20.0986 22.5845C19.1 23.4 18.3162 24.4412 17.8085 25.6169C17.7956 25.6468 17.7814 25.6758 17.7659 25.704ZM31.875 26.8672C31.875 28.0063 32.7984 28.9297 33.9375 28.9297C35.0766 28.9297 36 28.0063 36 26.8672C36 25.7281 35.0766 24.8047 33.9375 24.8047C32.7984 24.8047 31.875 25.7281 31.875 26.8672Z" fill="white"/>
</svg>