<svg width="25" height="25" viewBox="0 0 25 25" fill="none" xmlns="http://www.w3.org/2000/svg">
<rect width="25" height="25" rx="5" fill="url(#paint0_linear_1_3667)"/>
<path d="M10.2335 20.3799C10.0407 20.5737 9.77772 20.682 9.50445 20.682C9.23118 20.682 8.96822 20.5737 8.77539 20.3799L2.95321 14.5567C2.34893 13.9524 2.34893 12.9727 2.95321 12.3695L3.68227 11.6404C4.28656 11.0361 5.26517 11.0361 5.86946 11.6404L9.50445 15.2754L19.3267 5.45321C19.9309 4.84893 20.9106 4.84893 21.5138 5.45321L22.2429 6.18227C22.8472 6.78656 22.8472 7.7662 22.2429 8.36946L10.2335 20.3799Z" fill="white"/>
<defs>
<linearGradient id="paint0_linear_1_3667" x1="3.91155e-08" y1="15" x2="21.25" y2="12.5" gradientUnits="userSpaceOnUse">
<stop stop-color="#31A08A"/>
<stop offset="1" stop-color="#63E6CC"/>
</linearGradient>
</defs>
</svg>
