<svg width="16" height="16" viewBox="0 0 16 16" fill="none" xmlns="http://www.w3.org/2000/svg">
<path d="M9.93155 15.5H3.28422C1.74896 15.5 0.5 14.4486 0.5 13.1562V5.2168C0.5 3.92442 1.74896 2.87305 3.28422 2.87305H9.93155C11.4668 2.87305 12.7158 3.92442 12.7158 5.2168V13.1562C12.7158 14.4486 11.4668 15.5 9.93155 15.5ZM3.28422 4.04492C2.51666 4.04492 1.89211 4.57066 1.89211 5.2168V13.1562C1.89211 13.8024 2.51666 14.3281 3.28422 14.3281H9.93155C10.6991 14.3281 11.3237 13.8024 11.3237 13.1562V5.2168C11.3237 4.57066 10.6991 4.04492 9.93155 4.04492H3.28422ZM15.5 11.6914V2.84375C15.5 1.55137 14.251 0.5 12.7158 0.5H4.98956C4.6051 0.5 4.2935 0.762299 4.2935 1.08594C4.2935 1.40958 4.6051 1.67188 4.98956 1.67188H12.7158C13.4833 1.67188 14.1079 2.19762 14.1079 2.84375V11.6914C14.1079 12.015 14.4195 12.2773 14.8039 12.2773C15.1884 12.2773 15.5 12.015 15.5 11.6914Z" fill="#31A08A"/>
</svg>