<svg width="17" height="17" viewBox="0 0 17 17" fill="none" xmlns="http://www.w3.org/2000/svg">
<path d="M1.10179 17C0.819836 17 0.537683 16.8921 0.323094 16.6773C-0.107698 16.2467 -0.107698 15.5505 0.323094 15.1199L15.1199 0.322943C15.5505 -0.107648 16.2467 -0.107648 16.6773 0.322943C17.1081 0.753533 17.1081 1.44974 16.6773 1.88033L1.88048 16.6773C1.66448 16.8931 1.38374 17 1.10179 17Z" fill="#F44336"/>
<path d="M15.8986 17C15.6166 17 15.3347 16.8921 15.1199 16.6773L0.323094 1.88033C-0.107698 1.44974 -0.107698 0.753533 0.323094 0.322943C0.753684 -0.107648 1.44969 -0.107648 1.88048 0.322943L16.6773 15.1199C17.1081 15.5505 17.1081 16.2467 16.6773 16.6773C16.4625 16.8931 16.1805 17 15.8986 17Z" fill="#F44336"/>
</svg>
