<svg width="50" height="45" viewBox="0 0 50 45" fill="none" xmlns="http://www.w3.org/2000/svg">
<path fill-rule="evenodd" clip-rule="evenodd" d="M28.8947 2.2486L39.1427 19.9986L49.3906 37.7485C50.2031 39.1558 50.2031 40.8384 49.3907 42.2457C48.5782 43.6531 47.1209 44.4944 45.496 44.4944H4.50408C2.87914 44.4944 1.42191 43.6531 0.609439 42.2458C-0.203146 40.8385 -0.203146 39.1558 0.609439 37.7485L10.8574 19.9986L21.1054 2.2486C21.9179 0.841306 23.3751 0 25 0C26.6251 0 28.0822 0.841306 28.8947 2.2486ZM25 33.1252C26.1347 33.1252 27.0545 34.045 27.0545 35.1797C27.0545 36.3143 26.1347 37.2341 25 37.2341C23.8654 37.2341 22.9456 36.3143 22.9456 35.1797C22.9456 34.045 23.8654 33.1252 25 33.1252ZM25.0011 10.4348C26.3809 10.4348 27.6332 11.5712 27.5577 12.9914L26.6446 30.1575H23.6315L22.4444 12.9914C22.3475 11.5887 23.5949 10.4348 25.0011 10.4348Z" fill="#FF0000"/>
</svg>