<svg width="28" height="28" viewBox="0 0 28 28" fill="none" xmlns="http://www.w3.org/2000/svg">
<path d="M4.01489 14.6155C3.92627 14.4508 3.87988 14.2666 3.87988 14.0795C3.87988 13.8924 3.92627 13.7082 4.01489 13.5434C6.18438 9.53121 10.192 6.05338 14.1996 6.05338C18.2072 6.05338 22.2148 9.53122 24.3843 13.5445C24.4729 13.7093 24.5193 13.8935 24.5193 14.0806C24.5193 14.2677 24.4729 14.4519 24.3843 14.6167C22.2148 18.6289 18.2072 22.1067 14.1996 22.1067C10.192 22.1067 6.18438 18.6289 4.01489 14.6155V14.6155Z" stroke="white" stroke-width="1.72" stroke-linecap="round" stroke-linejoin="round"/>
<path d="M16.5462 11.5622C16.8802 11.8781 17.1475 12.2578 17.3323 12.6789C17.5171 13.0999 17.6156 13.5537 17.622 14.0135C17.6284 14.4732 17.5425 14.9296 17.3695 15.3556C17.1965 15.7816 16.9399 16.1686 16.6147 16.4938C16.2896 16.8189 15.9026 17.0755 15.4766 17.2485C15.0506 17.4215 14.5942 17.5074 14.1345 17.501C13.6747 17.4946 13.2209 17.3961 12.7999 17.2113C12.3788 17.0265 11.9991 16.7592 11.6831 16.4252C11.0755 15.7731 10.7447 14.9106 10.7604 14.0194C10.7761 13.1282 11.1372 12.2779 11.7674 11.6476C12.3977 11.0173 13.248 10.6563 14.1392 10.6406C15.0304 10.6249 15.8929 10.9557 16.545 11.5633" stroke="white" stroke-width="1.63859" stroke-linecap="round" stroke-linejoin="round"/>
</svg>
