<svg width="150" height="149" viewBox="0 0 150 149" fill="none" xmlns="http://www.w3.org/2000/svg">
  <path d="m77.831 72.504-19.144 29.918L.003 148.46H0l13.47-34.714 3.746-3.057-.342-5.715 3.105-8.001 3.44-2.24-.07-6.445 3.12-8.038 4.67-2.811-1.357-5.729 3.175-8.18 4.725-2.186-1.457-6.235 5.472-14.102 7.075 5.472a269.891 269.891 0 0 1 29.06 26.025Z" fill="#FD5"/>
  <path d="M146.433 76.907c-1.476.664-2.236.426-4.072-.148-2.289-.715-5.747-1.797-10.235.22-4.489 2.019-5.975 5.323-6.959 7.51-.79 1.754-1.117 2.48-2.593 3.144-1.476.663-2.236.426-4.071-.148-2.289-.716-5.748-1.797-10.235.22l3.567 7.935c1.477-.664 2.236-.426 4.071.148 1.31.41 3.002.939 5.051.939 1.532 0 3.264-.297 5.184-1.16 4.489-2.017 5.975-5.321 6.959-7.508.79-1.754 1.116-2.48 2.593-3.144 1.476-.664 2.237-.427 4.072.147 2.289.716 5.747 1.797 10.235-.22l-3.567-7.935Z" fill="#00CB76"/>
  <path d="M73.763 0c-.849 1.756-1.758 2.173-3.568 3.005-2.347 1.078-5.56 2.554-7.77 7.125-2.208 4.57-1.368 8.006-.755 10.514.474 1.936.711 2.907-.138 4.663-.848 1.755-1.757 2.173-3.567 3.004-2.346 1.078-5.56 2.554-7.77 7.124l7.834 3.786c.848-1.755 1.757-2.173 3.567-3.004 2.347-1.078 5.56-2.554 7.77-7.124 2.208-4.571 1.368-8.006.755-10.515-.474-1.935-.711-2.906.138-4.662.848-1.756 1.757-2.174 3.567-3.005 2.347-1.078 5.56-2.555 7.77-7.125L73.761 0Z" fill="#8BBBFF"/>
  <path d="M81.885 20.792h8.7v8.7h-8.7v-8.7ZM103.634.496h8.699v8.7h-8.699v-8.7Z" fill="#1F7099"/>
  <path d="M116.683 57.041h8.7v8.602h-8.7v-8.602Zm21.749-13.048h8.699v8.602h-8.699v-8.602Z" fill="#284866"/>
  <path d="M34.039 22.245h8.7v8.476h-8.7v-8.476Zm8.7-21.749h8.7V8.97h-8.7V.496Z" fill="#1F7099"/>
  <path d="M121.034 109.463h8.699v8.475h-8.699v-8.475Zm17.398-13.272h8.699v8.476h-8.699v-8.476Z" fill="#284866"/>
  <path d="m67.448 82.639-6.225 6.075a235.326 235.326 0 0 0-28.265-25.185l3.268-8.421a243.874 243.874 0 0 1 31.222 27.53ZM54.813 94.97l-6.226 6.075A253.744 253.744 0 0 0 26.47 80.25l3.311-8.54a262.518 262.518 0 0 1 25.032 23.26ZM42.46 107.026l-6.223 6.075a296.248 296.248 0 0 0-16.256-16.126l3.37-8.685a304.033 304.033 0 0 1 19.109 18.736Zm-11.886 11.597-6.226 6.078a340.053 340.053 0 0 0-10.877-10.956l3.404-8.772a349.957 349.957 0 0 1 13.7 13.65Z" fill="#FFF69E"/>
  <path d="M77.83 72.501a269.78 269.78 0 0 1 27.971 34.174l3.271 4.739-14.673 4.983-7.106-1.563-1.422 4.459-8.59 2.917-6.32-1.048-2.301 3.976-8.331 2.83-5.519-.608-3.212 3.573-7.65 2.598-7.714-1.062-1.157 4.074L.001 148.456" fill="#FFB555"/>
  <path d="m94.403 116.4-8.528 2.894a235.06 235.06 0 0 0-24.652-30.582l6.226-6.075A243.507 243.507 0 0 1 94.403 116.4Zm-17.119 5.813-8.621 2.928a253.458 253.458 0 0 0-20.076-24.097l6.226-6.075a262.54 262.54 0 0 1 22.47 27.244Zm-16.951 5.756-8.731 2.964a295.534 295.534 0 0 0-15.363-17.837l6.223-6.075a304.21 304.21 0 0 1 17.871 20.948Zm-16.382 5.565-8.87 3.013a338.623 338.623 0 0 0-10.733-11.846l6.226-6.078a348.524 348.524 0 0 1 13.377 14.911Z" fill="#FD5"/>
  <path d="M147.316 6.845c-1.227 1.194-1.299 2.067-1.459 3.978-.214 2.543-.507 6.026-4.065 9.489-3.558 3.459-7.047 3.656-9.596 3.798-1.917.108-2.79.157-4.019 1.352-1.227 1.192-1.299 2.064-1.459 3.978-.214 2.543-.507 6.026-4.065 9.485-3.558 3.46-7.047 3.657-9.596 3.8-1.914.107-2.789.156-4.016 1.35-1.227 1.192-1.299 2.065-1.461 3.98-.212 2.542-.505 6.025-4.063 9.484-3.558 3.46-7.047 3.657-9.596 3.8-1.914.107-2.79.156-4.016 1.35l-.983-1.008 30.413-30.96L146.243 5.74l1.073 1.105Z" fill="#DF6666"/>
  <path d="m146.243 5.736-57.32 55.94-5.084-5.228c3.558-3.46 7.047-3.657 9.596-3.799 1.916-.107 2.79-.156 4.016-1.35 1.226-1.193 1.302-2.066 1.461-3.977.215-2.543.508-6.025 4.063-9.488 3.558-3.46 7.049-3.657 9.595-3.799 1.917-.107 2.793-.156 4.017-1.35 1.229-1.193 1.302-2.066 1.461-3.977.215-2.543.508-6.025 4.066-9.488 3.558-3.46 7.046-3.656 9.595-3.799 1.914-.107 2.79-.156 4.017-1.35 1.226-1.193 1.302-2.066 1.461-3.98.215-2.543.508-6.025 4.066-9.485l4.99 5.13Z" fill="#E69768"/>
</svg>
