<svg width="20" height="20" viewBox="0 0 20 20" fill="none" xmlns="http://www.w3.org/2000/svg">
<path fill-rule="evenodd" clip-rule="evenodd" d="M14 20H18C19.1047 20 20 19.1047 20 18V14C20 13.632 19.7013 13.3333 19.3333 13.3333C18.9653 13.3333 18.6667 13.632 18.6667 14V18C18.6667 18.368 18.368 18.6667 18 18.6667H14C13.632 18.6667 13.3333 18.9653 13.3333 19.3333C13.3333 19.7013 13.632 20 14 20ZM6 18.6667H2C1.632 18.6667 1.33333 18.368 1.33333 18V14C1.33333 13.632 1.03467 13.3333 0.666667 13.3333C0.298667 13.3333 0 13.632 0 14V18C0 19.1047 0.895333 20 2 20H6C6.368 20 6.66667 19.7013 6.66667 19.3333C6.66667 18.9653 6.368 18.6667 6 18.6667ZM9.33333 12.6667V16.6667C9.33333 17.0347 9.632 17.3333 10 17.3333C10.368 17.3333 10.6667 17.0347 10.6667 16.6667V12.6667C10.6667 12.2987 10.368 12 10 12C9.632 12 9.33333 12.2987 9.33333 12.6667ZM8 12.6667C8 12.2987 7.70133 12 7.33333 12H3.33333C2.96533 12 2.66667 12.2987 2.66667 12.6667V16.6667C2.66667 17.0347 2.96533 17.3333 3.33333 17.3333H7.33333C7.70133 17.3333 8 17.0347 8 16.6667V12.6667ZM17.3333 12.6667C17.3333 12.2987 17.0347 12 16.6667 12H12.6667C12.2987 12 12 12.2987 12 12.6667V16.6667C12 17.0347 12.2987 17.3333 12.6667 17.3333H16.6667C17.0347 17.3333 17.3333 17.0347 17.3333 16.6667V12.6667ZM6.66667 13.3333V16H4V13.3333H6.66667ZM16 13.3333V16H13.3333V13.3333H16ZM9.33333 10.6667H10C10.368 10.6667 10.6667 10.368 10.6667 10C10.6667 9.632 10.368 9.33333 10 9.33333H9.33333C8.96533 9.33333 8.66667 9.632 8.66667 10C8.66667 10.368 8.96533 10.6667 9.33333 10.6667ZM3.33333 10.6667H6.66667C7.03467 10.6667 7.33333 10.368 7.33333 10C7.33333 9.632 7.03467 9.33333 6.66667 9.33333H3.33333C2.96533 9.33333 2.66667 9.632 2.66667 10C2.66667 10.368 2.96533 10.6667 3.33333 10.6667ZM15.3333 9.33333H16V10C16 10.368 16.2987 10.6667 16.6667 10.6667C17.0347 10.6667 17.3333 10.368 17.3333 10V8.66667C17.3333 8.29867 17.0347 8 16.6667 8H15.3333C14.9653 8 14.6667 8.29867 14.6667 8.66667C14.6667 9.03467 14.9653 9.33333 15.3333 9.33333ZM13.3333 10V6.66667H14C14.368 6.66667 14.6667 6.368 14.6667 6C14.6667 5.632 14.368 5.33333 14 5.33333H12.6667C12.2987 5.33333 12 5.632 12 6V10C12 10.368 12.2987 10.6667 12.6667 10.6667C13.0347 10.6667 13.3333 10.368 13.3333 10ZM9.33333 6V7.33333C9.33333 7.70133 9.632 8 10 8C10.368 8 10.6667 7.70133 10.6667 7.33333V6C10.6667 5.632 10.368 5.33333 10 5.33333C9.632 5.33333 9.33333 5.632 9.33333 6ZM8 3.33333C8 2.96533 7.70133 2.66667 7.33333 2.66667H3.33333C2.96533 2.66667 2.66667 2.96533 2.66667 3.33333V7.33333C2.66667 7.70133 2.96533 8 3.33333 8H7.33333C7.70133 8 8 7.70133 8 7.33333V3.33333ZM6 0H2C0.895333 0 0 0.895333 0 2V6C0 6.368 0.298667 6.66667 0.666667 6.66667C1.03467 6.66667 1.33333 6.368 1.33333 6V2C1.33333 1.632 1.632 1.33333 2 1.33333H6C6.368 1.33333 6.66667 1.03467 6.66667 0.666667C6.66667 0.298667 6.368 0 6 0ZM6.66667 4V6.66667H4V4H6.66667ZM14 1.33333H18C18.368 1.33333 18.6667 1.632 18.6667 2V6C18.6667 6.368 18.9653 6.66667 19.3333 6.66667C19.7013 6.66667 20 6.368 20 6V2C20 0.895333 19.1047 0 18 0H14C13.632 0 13.3333 0.298667 13.3333 0.666667C13.3333 1.03467 13.632 1.33333 14 1.33333ZM10 4H16V6C16 6.368 16.2987 6.66667 16.6667 6.66667C17.0347 6.66667 17.3333 6.368 17.3333 6V3.33333C17.3333 2.96533 17.0347 2.66667 16.6667 2.66667H10C9.632 2.66667 9.33333 2.96533 9.33333 3.33333C9.33333 3.70133 9.632 4 10 4Z" fill="#11C19E"/>
</svg>