<svg width="50" height="50" viewBox="0 0 50 50" fill="none" xmlns="http://www.w3.org/2000/svg">
<rect x="0.75" y="0.75" width="48.5" height="48.5" rx="24.25" fill="#31A08A" stroke="#31A08A" stroke-width="1.5"/>
<path d="M24.6437 35.7749L24.6426 35.7739L18.3523 30.0588C17.881 29.6307 17.8828 28.9382 18.3564 28.512C18.8299 28.0859 19.5958 28.0875 20.0671 28.5157L24.2903 32.3528L24.2903 14.0953C24.2903 13.4912 24.8319 13.0015 25.5 13.0015C26.1681 13.0015 26.7097 13.4912 26.7097 14.0953L26.7097 32.3527L30.9329 28.5157C31.4042 28.0876 32.1701 28.0859 32.6436 28.5121C33.1173 28.9382 33.1189 29.6308 32.6477 30.0589L26.3574 35.774L26.3563 35.7749C25.8834 36.2033 25.115 36.2019 24.6437 35.7749Z" fill="white"/>
</svg>