<svg width="50" height="50" viewBox="0 0 50 50" fill="none" xmlns="http://www.w3.org/2000/svg">
<rect x="0.75" y="0.75" width="48.5" height="48.5" rx="24.25" fill="#31A08A" stroke="#31A08A" stroke-width="1.5"/>
<path d="M26.3563 13.3223L26.3574 13.3233L32.6477 19.0384C33.119 19.4665 33.1172 20.159 32.6436 20.5852C32.1701 21.0113 31.4042 21.0097 30.9329 20.5816L26.7097 16.7445L26.7097 35.002C26.7097 35.606 26.1681 36.0957 25.5 36.0957C24.8319 36.0957 24.2903 35.606 24.2903 35.002L24.2903 16.7445L20.0671 20.5815C19.5958 21.0096 18.8299 21.0113 18.3564 20.5852C17.8827 20.159 17.8811 19.4664 18.3523 19.0383L24.6426 13.3233L24.6437 13.3223C25.1166 12.8939 25.885 12.8953 26.3563 13.3223Z" fill="white"/>
</svg>