<svg width="20" height="22" viewBox="0 0 20 22" fill="none" xmlns="http://www.w3.org/2000/svg">
<path d="M19.4111 12.505L18.5527 11.7983C17.9646 11.3143 17.9657 10.4146 18.5527 9.93148L19.4111 9.22483C20.0219 8.7219 20.1782 7.85952 19.7826 7.17418L18.0876 4.23834C17.6919 3.55305 16.8667 3.25723 16.1259 3.53475L15.0847 3.92483C14.3715 4.19195 13.5929 3.74142 13.4679 2.9914L13.2851 1.89462C13.1551 1.11413 12.4863 0.547607 11.695 0.547607H8.30503C7.5137 0.547607 6.84493 1.11413 6.71487 1.89466L6.53206 2.9914C6.40685 3.74275 5.62716 4.19151 4.91531 3.92487L3.87411 3.53475C3.13324 3.25723 2.30817 3.55309 1.91245 4.23834L0.217469 7.17414C-0.178176 7.85939 -0.0219654 8.72182 0.588972 9.22479L1.44736 9.93144C2.03545 10.4155 2.03428 11.3152 1.44736 11.7983L0.588932 12.505C-0.0219653 13.0079 -0.178216 13.8704 0.217428 14.5556L1.91245 17.4914C2.30813 18.1767 3.13304 18.4726 3.87411 18.195L4.91527 17.805C5.62857 17.5377 6.40705 17.9886 6.53202 18.7384L6.71483 19.8351C6.84493 20.6157 7.5137 21.1822 8.30499 21.1822H11.695C12.4863 21.1822 13.155 20.6157 13.2851 19.8352L13.4679 18.7385C13.5931 17.9873 14.3727 17.5382 15.0847 17.805L16.1259 18.1951C16.8669 18.4726 17.6919 18.1768 18.0876 17.4915L19.7826 14.5556C20.1782 13.8704 20.0219 13.0079 19.4111 12.505ZM16.6915 16.6854L15.6503 16.2954C13.9858 15.6719 12.1694 16.7238 11.8778 18.4734L11.695 19.5701H8.30503L8.12222 18.4734C7.83007 16.7204 6.01096 15.6731 4.34975 16.2954L3.30855 16.6854L1.61357 13.7496L2.47196 13.043C3.8442 11.9133 3.84134 9.8142 2.47196 8.68688L1.61357 7.98022L3.30859 5.04438L4.34975 5.43446C6.01422 6.05794 7.83063 5.00605 8.12222 3.25642L8.30499 2.15969H11.695L11.8778 3.25642C12.1699 5.00964 13.9891 6.05665 15.6502 5.43446L16.6914 5.04438L18.3868 7.97982C18.3868 7.97982 18.3867 7.97994 18.3864 7.98018L17.528 8.68683C16.1558 9.81642 16.1586 11.9155 17.528 13.0429L18.3864 13.7496L16.6915 16.6854ZM10 6.88844C7.80738 6.88844 6.02353 8.67229 6.02353 10.8649C6.02353 13.0575 7.80738 14.8414 10 14.8414C12.1926 14.8414 13.9765 13.0575 13.9765 10.8649C13.9765 8.67229 12.1926 6.88844 10 6.88844ZM10 13.2293C8.69628 13.2293 7.63561 12.1686 7.63561 10.8649C7.63561 9.56119 8.69628 8.50052 10 8.50052C11.3037 8.50052 12.3644 9.56119 12.3644 10.8649C12.3644 12.1686 11.3037 13.2293 10 13.2293Z" fill="#D6D9DC"/>
</svg>
