<svg width="116" height="116" viewBox="0 0 116 116" fill="none" xmlns="http://www.w3.org/2000/svg">
<path d="M116 58C116 90.0325 90.0325 116 58 116C25.9675 116 0 90.0325 0 58C0 25.9675 25.9675 0 58 0C90.0325 0 116 25.9675 116 58ZM2.79634 58C2.79634 88.4881 27.5119 113.204 58 113.204C88.4881 113.204 113.204 88.4881 113.204 58C113.204 27.5119 88.4881 2.79634 58 2.79634C27.5119 2.79634 2.79634 27.5119 2.79634 58Z" fill="#31A08A"/>
<circle cx="58" cy="58" r="51" fill="#31A08A"/>
<path d="M90.0335 34.9572C88.7448 33.6809 86.6555 33.6809 85.3665 34.9572L45.8305 74.111L30.6335 59.0611C29.3448 57.7847 27.2555 57.7849 25.9666 59.0611C24.6778 60.3373 24.6778 62.4063 25.9666 63.6827L43.4971 81.0432C44.7853 82.3194 46.8762 82.3185 48.164 81.0432L90.0335 39.579C91.3223 38.3028 91.3221 36.2336 90.0335 34.9572Z" fill="white"/>
</svg>