<svg width="37" height="37" viewBox="0 0 37 37" fill="none" xmlns="http://www.w3.org/2000/svg">
<circle cx="18.5" cy="18.5" r="17.75" fill="white" stroke="#D6D9DC" stroke-width="1.5"/>
<path d="M9 20.3059C9 14.5889 13.6345 9.95447 19.3514 9.95447H21.5V8.58709C21.5 8.07978 22.1009 7.8122 22.4779 8.15158L26.3841 11.6672C26.6428 11.9 26.6428 12.3055 26.3841 12.5383L22.4779 16.0539C22.1009 16.3933 21.5 16.1256 21.5 15.6184V14.2513H19.5017C15.3937 14.2513 11.6919 16.7304 10.1277 20.529C9.88336 21.1224 9 20.9477 9 20.3059Z" fill="#D6D9DC"/>
<path d="M29 15.6942C29 21.4111 24.3655 26.0456 18.6486 26.0456H16.5V27.4129C16.5 27.9202 15.8991 28.1878 15.5221 27.8484L11.6158 24.3328C11.3572 24.1 11.3572 23.6945 11.6158 23.4618L15.5221 19.9461C15.8992 19.6068 16.5 19.8744 16.5 20.3817V21.7487H18.4983C22.6063 21.7487 26.3081 19.2696 27.8722 15.4711C28.1166 14.8776 29 15.0524 29 15.6942Z" fill="#D6D9DC"/>
</svg>