<svg width="58" height="58" viewBox="0 0 58 58" fill="none" xmlns="http://www.w3.org/2000/svg">
<g filter="url(#filter0_b_1_1753)">
<ellipse cx="29.0001" cy="29.0002" rx="29" ry="29" fill="#02AEAE"/>
</g>
<rect width="28.6667" height="28.6667" transform="translate(12.4 15.0269)" fill="#02AEAE"/>
<path d="M25.1869 18.8977C25.3261 19.0375 25.4478 19.1936 25.5496 19.3625L27.1409 22.0529C27.5234 22.6988 27.643 23.467 27.4751 24.1985C27.3072 24.9301 26.8647 25.5692 26.2389 25.9838L25.6933 26.3457C26.7927 28.3856 28.4658 30.0587 30.5058 31.1582L30.8787 30.6047C31.2968 29.9835 31.9369 29.5461 32.6676 29.3823C33.3982 29.2184 34.1638 29.3407 34.8071 29.7238L37.5031 31.3317C37.9208 31.5826 38.2515 31.9555 38.4505 32.4003C38.6496 32.845 38.7075 33.3401 38.6163 33.8188C38.4454 34.6077 38.1142 35.3531 37.6433 36.0088C37.1724 36.6644 36.5718 37.2163 35.8788 37.6303C35.2404 38.0372 34.5252 38.3087 33.7777 38.4281C33.0301 38.5474 32.266 38.5121 31.5326 38.3243C28.4344 37.4622 25.6119 35.8131 23.3397 33.5373C21.0675 31.2615 19.4228 28.4365 18.5656 25.3369C18.377 24.5987 18.342 23.8297 18.4625 23.0774C18.5831 22.3251 18.8568 21.6055 19.2667 20.9633C19.6762 20.2766 20.2223 19.6813 20.8712 19.2142C21.52 18.7471 22.2578 18.4181 23.039 18.2477C23.4228 18.1694 23.8201 18.1878 24.1951 18.3013C24.5701 18.4148 24.9109 18.6197 25.1869 18.8977ZM26.5655 30.2812C25.4427 29.1595 24.5278 27.8475 23.8633 26.4061C23.7801 26.2255 23.7642 26.0211 23.8185 25.8298C23.8727 25.6384 23.9936 25.4728 24.1593 25.3628L25.318 24.595C25.5876 24.4163 25.7783 24.1409 25.8508 23.8256C25.9232 23.5104 25.8719 23.1793 25.7074 22.9008L24.1192 20.2135C24.0471 20.0874 23.937 19.9873 23.8046 19.9274C23.6723 19.8675 23.5244 19.8509 23.382 19.8799C22.8228 20.0038 22.2951 20.2416 21.8317 20.5783C21.3683 20.915 20.9791 21.3435 20.6885 21.837C20.3988 22.2839 20.2036 22.7852 20.1149 23.3103C20.0262 23.8353 20.0459 24.373 20.1727 24.8902C20.9528 27.7132 22.4502 30.2863 24.5192 32.3592C26.5883 34.4321 29.1586 35.9342 31.9801 36.7196C32.4923 36.8452 33.0247 36.8646 33.5446 36.7767C34.0645 36.6888 34.561 36.4954 35.0034 36.2085C35.4989 35.913 35.9295 35.5201 36.2691 35.0537C36.6087 34.5873 36.8503 34.0569 36.9794 33.4945C37.0059 33.3522 36.9878 33.2051 36.9275 33.0734C36.8672 32.9417 36.7677 32.8319 36.6426 32.7589L33.9475 31.1535C33.6703 30.9882 33.3403 30.9356 33.0255 31.0062C32.7106 31.0769 32.4349 31.2656 32.2549 31.5334L31.4761 32.6985C31.3654 32.8632 31.1996 32.9829 31.0084 33.0362C30.8173 33.0894 30.6134 33.0727 30.4335 32.9889C28.9964 32.3184 27.6874 31.4021 26.5655 30.2812Z" fill="white"/>
<defs>
<filter id="filter0_b_1_1753" x="-34.911" y="-34.9109" width="127.822" height="127.822" filterUnits="userSpaceOnUse" color-interpolation-filters="sRGB">
<feFlood flood-opacity="0" result="BackgroundImageFix"/>
<feGaussianBlur in="BackgroundImageFix" stdDeviation="17.4556"/>
<feComposite in2="SourceAlpha" operator="in" result="effect1_backgroundBlur_1_1753"/>
<feBlend mode="normal" in="SourceGraphic" in2="effect1_backgroundBlur_1_1753" result="shape"/>
</filter>
</defs>
</svg>