<svg width="58" height="58" viewBox="0 0 58 58" fill="none" xmlns="http://www.w3.org/2000/svg">
<g filter="url(#filter0_b_1_1811)">
<ellipse cx="29" cy="29" rx="29" ry="29" fill="#EA3736"/>
</g>
<path d="M38.0598 34.6995C37.8618 34.699 37.6647 34.6747 37.4726 34.6271L34.4341 33.8471C33.7044 33.6602 33.0744 33.2 32.6744 32.5617C32.2744 31.9234 32.1349 31.1558 32.2848 30.4176L32.4152 29.7736C30.1874 29.1062 27.8128 29.1062 25.585 29.7736L25.7132 30.431C25.8573 31.1685 25.7134 31.9331 25.3112 32.5679C24.909 33.2026 24.2789 33.6592 23.5505 33.8438L20.4964 34.6159C20.022 34.7343 19.5226 34.7043 19.0658 34.53C18.6089 34.3556 18.2165 34.0454 17.9415 33.641C17.503 32.9599 17.2091 32.1959 17.078 31.3964C16.9469 30.597 16.9814 29.7792 17.1794 28.9936C17.3437 28.2519 17.6585 27.5517 18.1043 26.9365C18.5501 26.3213 19.1174 25.8041 19.7711 25.417C22.5814 23.8301 25.7545 22.9975 28.9819 23C32.2093 23.0025 35.3812 23.8402 38.189 25.4315C38.8467 25.8215 39.4173 26.3423 39.8656 26.9617C40.3139 27.5812 40.6302 28.286 40.7951 29.0326C40.9918 29.8105 41.0268 30.6205 40.8978 31.4124C40.7688 32.2043 40.4786 32.9613 40.0453 33.6365C39.8285 33.9645 39.5335 34.2334 39.1868 34.4189C38.8402 34.6045 38.4529 34.7009 38.0598 34.6995ZM29.0034 27.5997C30.5962 27.599 32.1765 27.8808 33.6709 28.4321C33.8581 28.5012 34.0144 28.635 34.1117 28.8093C34.2089 28.9835 34.2407 29.1868 34.2012 29.3825L33.9238 30.7496C33.8593 31.0678 33.9194 31.3985 34.0917 31.6737C34.264 31.9488 34.5353 32.1473 34.8497 32.2282L37.8837 33.0081C38.0244 33.0464 38.1736 33.0393 38.31 32.9879C38.4464 32.9365 38.5632 32.8434 38.6436 32.7218C38.9525 32.237 39.1582 31.6938 39.2481 31.126C39.3381 30.5582 39.3101 29.978 39.1662 29.4215C39.0546 28.8988 38.8374 28.4046 38.5277 27.969C38.2181 27.5335 37.8226 27.1659 37.3656 26.8889C34.8087 25.4392 31.9202 24.6758 28.981 24.6731C26.0417 24.6704 23.1518 25.4283 20.5923 26.8733C20.1397 27.1476 19.7481 27.5116 19.4415 27.943C19.1349 28.3743 18.9199 28.8638 18.8095 29.3814C18.6676 29.9427 18.6408 30.527 18.7309 31.099C18.8209 31.671 19.0258 32.2189 19.3332 32.7095C19.4154 32.8294 19.5327 32.9209 19.6689 32.9715C19.8051 33.0222 19.9537 33.0295 20.0942 32.9925L23.146 32.2193C23.46 32.1398 23.7315 31.943 23.9048 31.6695C24.078 31.3959 24.1399 31.0663 24.0775 30.7485L23.8034 29.3691C23.7651 29.1737 23.7978 28.971 23.8956 28.7976C23.9935 28.6242 24.15 28.4914 24.3371 28.4231C25.8328 27.8791 27.4119 27.6005 29.0034 27.5997Z" fill="white"/>
<defs>
<filter id="filter0_b_1_1811" x="-34.9111" y="-34.9111" width="127.822" height="127.822" filterUnits="userSpaceOnUse" color-interpolation-filters="sRGB">
<feFlood flood-opacity="0" result="BackgroundImageFix"/>
<feGaussianBlur in="BackgroundImageFix" stdDeviation="17.4556"/>
<feComposite in2="SourceAlpha" operator="in" result="effect1_backgroundBlur_1_1811"/>
<feBlend mode="normal" in="SourceGraphic" in2="effect1_backgroundBlur_1_1811" result="shape"/>
</filter>
</defs>
</svg>