<svg width="24" height="25" viewBox="0 0 24 25" fill="none" xmlns="http://www.w3.org/2000/svg">
<path d="M12.0002 0.693726C9.62687 0.693726 7.30679 1.39751 5.33341 2.71609C3.36002 4.03467 1.82195 5.90881 0.913695 8.10152C0.00544357 10.2942 -0.232196 12.707 0.230826 15.0348C0.693849 17.3626 1.83674 19.5008 3.51497 21.179C5.1932 22.8572 7.33139 24.0001 9.65916 24.4631C11.9869 24.9262 14.3997 24.6885 16.5924 23.7803C18.7852 22.872 20.6593 21.334 21.9779 19.3606C23.2965 17.3872 24.0002 15.0671 24.0002 12.6937C23.9968 9.51218 22.7314 6.46193 20.4817 4.21224C18.232 1.96255 15.1818 0.697167 12.0002 0.693726ZM12.0002 22.6937C10.0224 22.6937 8.08904 22.1072 6.44455 21.0084C4.80005 19.9096 3.51833 18.3478 2.76145 16.5206C2.00458 14.6933 1.80654 12.6826 2.1924 10.7428C2.57825 8.80301 3.53066 7.02118 4.92918 5.62266C6.32771 4.22413 8.10953 3.27172 10.0493 2.88587C11.9892 2.50002 13.9998 2.69805 15.8271 3.45493C17.6543 4.21181 19.2161 5.49353 20.3149 7.13802C21.4138 8.78251 22.0002 10.7159 22.0002 12.6937C21.9973 15.345 20.9428 17.8868 19.0681 19.7616C17.1934 21.6363 14.6515 22.6908 12.0002 22.6937Z" fill="#000"/>
<path d="M12.0002 9.69421C11.735 9.69421 11.4807 9.79957 11.2931 9.98711C11.1056 10.1746 11.0002 10.429 11.0002 10.6942V18.6942C11.0002 18.9594 11.1056 19.2138 11.2931 19.4013C11.4807 19.5889 11.735 19.6942 12.0002 19.6942C12.2655 19.6942 12.5198 19.5889 12.7074 19.4013C12.8949 19.2138 13.0002 18.9594 13.0002 18.6942V10.6942C13.0002 10.429 12.8949 10.1746 12.7074 9.98711C12.5198 9.79957 12.2655 9.69421 12.0002 9.69421Z" fill="#000"/>
<path d="M12.0002 7.69421C12.5525 7.69421 13.0002 7.2465 13.0002 6.69421C13.0002 6.14193 12.5525 5.69421 12.0002 5.69421C11.448 5.69421 11.0002 6.14193 11.0002 6.69421C11.0002 7.2465 11.448 7.69421 12.0002 7.69421Z" fill="#000"/>
</svg>
