<svg width="24" height="27" viewBox="0 0 24 27" fill="none" xmlns="http://www.w3.org/2000/svg">
<path d="M20.2666 13.4241V10.9851C20.2666 7.42715 17.7914 4.41151 14.4 3.42654V2.32228C14.4 1.05786 13.3234 0.0291748 12 0.0291748C10.6767 0.0291748 9.60002 1.05786 9.60002 2.32228V3.42654C6.20857 4.41151 3.73338 7.4271 3.73338 10.9851V13.4241C3.73338 16.5494 2.48656 19.513 0.222621 21.7688C0.000755663 21.9898 -0.0615908 22.316 0.0641687 22.5977C0.189928 22.8794 0.479527 23.0622 0.800059 23.0622H8.08051C8.45213 24.8045 10.0683 26.1197 12 26.1197C13.9317 26.1197 15.5478 24.8045 15.9195 23.0622H23.2C23.5205 23.0622 23.81 22.8794 23.9358 22.5977C24.0616 22.316 23.9992 21.9898 23.7774 21.7688C21.5135 19.513 20.2666 16.5494 20.2666 13.4241ZM11.2 2.32228C11.2 1.90081 11.5589 1.55791 12 1.55791C12.4411 1.55791 12.8 1.90081 12.8 2.32228V3.12375C12.5367 3.0995 12.2699 3.08665 12 3.08665C11.7301 3.08665 11.4633 3.0995 11.2 3.12375V2.32228ZM12 24.5909C10.9571 24.5909 10.0679 23.9519 9.73762 23.0622H14.2624C13.9322 23.9519 13.0429 24.5909 12 24.5909ZM2.52432 21.5334C4.34623 19.2 5.33337 16.3761 5.33337 13.4241V10.9851C5.33337 7.47286 8.32403 4.61539 12 4.61539C15.676 4.61539 18.6666 7.47286 18.6666 10.9851V13.4241C18.6666 16.3761 19.6538 19.2 21.4758 21.5334H2.52432Z" fill="#000"/>
<path d="M22.4 10.9855C22.4 11.4076 22.7582 11.7498 23.2 11.7498C23.6418 11.7498 24 11.4076 24 10.9855C24 7.92288 22.7518 5.0436 20.4853 2.87804C20.1729 2.57958 19.6664 2.57953 19.3539 2.87804C19.0415 3.17655 19.0415 3.6605 19.3539 3.95901C21.3183 5.83584 22.4 8.33121 22.4 10.9855Z" fill="#000"/>
<path d="M0.800118 11.7498C1.24193 11.7498 1.60011 11.4076 1.60011 10.9854C1.60011 8.33122 2.68192 5.83586 4.64618 3.95903C4.95861 3.66052 4.95861 3.17657 4.64618 2.87806C4.33381 2.57955 3.82725 2.57955 3.51483 2.87806C1.24833 5.04362 0.00012207 7.92285 0.00012207 10.9854C0.00012207 11.4076 0.358307 11.7498 0.800118 11.7498Z" fill="#000"/>
</svg>