<svg width="24" height="28" viewBox="0 0 24 28" fill="none" xmlns="http://www.w3.org/2000/svg">
<path d="M23.1917 3.31142C20.16 3.31142 14.6437 2.68487 12.9157 0.375816C12.6221 -0.0924459 11.9795 -0.134102 11.6286 0.312797C9.59419 2.62142 4.06501 3.31142 0.808286 3.31142C0.361834 3.31142 0 3.67992 0 4.13473V17.3093C0 23.2431 6.73025 26.8679 11.8288 27.9949C12.4872 28.1402 24 25.1804 24 17.3093V4.13473C24 3.68014 23.6382 3.31142 23.1917 3.31142ZM22.3834 17.3093C22.3834 23.493 13.3658 26.0003 11.9999 26.344C10.634 26.0003 1.61657 23.493 1.61657 17.3093V4.94884C7.85827 4.80251 10.971 2.97796 12.2085 1.98888C14.702 4.22701 19.0625 4.87237 22.3834 4.94906V17.3093Z" fill="#000"/>
<path d="M7.96111 10.6941V13.1918H7.15008C6.70384 13.1918 6.3418 13.5605 6.3418 14.0151V20.6024C6.3418 21.0572 6.70384 21.4259 7.15008 21.4259H16.8495C17.296 21.4259 17.6578 21.0572 17.6578 20.6024V14.0151C17.6578 13.5605 17.296 13.1918 16.8495 13.1918H9.57768V10.6941C9.57768 9.40723 10.5762 8.25131 12.0242 8.25131C13.3465 8.25131 14.4221 9.34698 14.4221 10.6941C14.4221 11.1487 14.7842 11.5174 15.2304 11.5174C15.6769 11.5174 16.0387 11.1487 16.0387 10.6941C16.0387 8.43909 14.238 6.60449 12.0242 6.60449C9.67072 6.60449 7.96111 8.51343 7.96111 10.6941ZM16.0412 19.7791H7.95837V14.8386H16.0412V19.7791Z" fill="#000"/>
<path d="M12.8082 17.3096C12.8082 16.8548 12.4464 16.4863 11.9999 16.4863C11.5537 16.4863 11.1917 16.8548 11.1917 17.3096C11.1917 17.7644 11.5537 18.1331 11.9999 18.1331C12.4464 18.1331 12.8082 17.7644 12.8082 17.3096Z" fill="#000"/>
</svg>