<svg width="24" height="24" viewBox="0 0 24 24" fill="none" xmlns="http://www.w3.org/2000/svg">
<path d="M12.0069 0.507812C5.69667 0.507812 0.572634 5.64649 0.572634 11.9752C0.576446 14.0004 1.12517 15.9825 2.14186 17.7295L0.591988 22.3923C0.492648 22.6912 0.776388 22.9756 1.07437 22.876L5.52151 21.3897C7.42758 22.713 9.68419 23.4377 12.0061 23.4411C18.3167 23.441 23.4404 18.3028 23.4404 11.9745C23.4403 5.64603 18.3171 0.507958 12.0069 0.507812ZM8.18578 10.8278C8.81274 10.8278 9.32921 11.3458 9.3292 11.9745C9.32919 12.6033 8.81273 13.1211 8.18578 13.1211C7.55883 13.1211 7.04311 12.6033 7.0431 11.9745C7.0431 11.3458 7.55882 10.8278 8.18578 10.8278ZM12.0069 10.8278C12.6338 10.8278 13.1503 11.3458 13.1503 11.9745C13.1503 12.6033 12.6338 13.1211 12.0069 13.1211C11.3799 13.1211 10.8635 12.6033 10.8634 11.9745C10.8634 11.3458 11.3799 10.8278 12.0069 10.8278ZM15.8086 10.8278C16.4356 10.8278 16.952 11.3458 16.952 11.9745C16.952 12.6033 16.4356 13.1211 15.8086 13.1211C15.1816 13.1211 14.6652 12.6033 14.6652 11.9745C14.6652 11.3458 15.1816 10.8278 15.8086 10.8278Z" fill="#000"/>
</svg>
