<svg width="8" height="13" viewBox="0 0 8 13" fill="none" xmlns="http://www.w3.org/2000/svg">
<path d="M5.42147 6.17782L1.04039 1.79656C0.919761 1.67621 0.853398 1.5153 0.853398 1.34373C0.853398 1.17206 0.919761 1.01125 1.04039 0.890714L1.42429 0.50701C1.54473 0.386282 1.70573 0.319824 1.8773 0.319824C2.04888 0.319824 2.20969 0.386282 2.33023 0.50701L7.54659 5.72328C7.6676 5.8442 7.73387 6.00577 7.7334 6.17753C7.73387 6.35006 7.6677 6.51144 7.54659 6.63246L2.33508 11.8437C2.21454 11.9644 2.05373 12.0309 1.88207 12.0309C1.71049 12.0309 1.54968 11.9644 1.42905 11.8437L1.04525 11.46C0.79551 11.2102 0.79551 10.8037 1.04525 10.554L5.42147 6.17782Z" fill="#000"/>
</svg>