<svg width="24" height="23" viewBox="0 0 24 23" fill="none" xmlns="http://www.w3.org/2000/svg">
<path d="M23.7648 14.3087C23.6578 14.2067 23.5227 14.1358 23.3751 14.1041C23.2276 14.0725 23.0737 14.0814 22.9313 14.1299C21.0174 14.7819 18.9491 14.9016 16.9668 14.4751C14.9844 14.0487 13.1695 13.0935 11.7327 11.7207C10.2959 10.3478 9.29637 8.6136 8.85013 6.71954C8.4039 4.82548 8.52932 2.84931 9.21182 1.02064C9.26253 0.884541 9.27183 0.737491 9.23865 0.596542C9.20546 0.455593 9.13114 0.326518 9.0243 0.224281C8.91747 0.122044 8.78249 0.0508325 8.63503 0.0189015C8.48756 -0.0130294 8.33364 -0.00437176 8.19112 0.0438709C6.4656 0.626066 4.8997 1.57256 3.60996 2.81293C1.29787 5.02371 -0.000618153 8.02134 2.20762e-07 11.1467C0.000618595 14.272 1.3003 17.2692 3.61325 19.4791C5.92621 21.6891 9.06307 22.9309 12.3341 22.9315C15.6051 22.9321 18.7425 21.6914 21.0563 19.4823C22.3546 18.2498 23.3452 16.7533 23.9544 15.1044C24.0047 14.9682 24.0136 14.8212 23.98 14.6804C23.9465 14.5396 23.8719 14.4107 23.7648 14.3087ZM19.9252 18.4016C18.8344 19.4408 17.5224 20.2436 16.0782 20.7555C14.634 21.2674 13.0914 21.4764 11.5552 21.3682C10.019 21.2601 8.52509 20.8374 7.17497 20.1288C5.82486 19.4203 4.65013 18.4424 3.73055 17.2617C2.81096 16.0809 2.16806 14.7249 1.84548 13.2858C1.5229 11.8467 1.52821 10.358 1.86104 8.92102C2.19387 7.484 2.84643 6.13224 3.77442 4.95751C4.7024 3.78278 5.88407 2.8126 7.23921 2.11283C6.83804 4.02108 6.93468 5.99435 7.52061 7.85846C8.10654 9.72258 9.16373 11.4202 10.5989 12.8015C12.0444 14.173 13.8212 15.1833 15.7722 15.7431C17.7233 16.303 19.7886 16.3952 21.7858 16.0116C21.2912 16.8909 20.6644 17.6961 19.9252 18.4016Z" fill="#000"/>
</svg>