<svg width="24" height="24" viewBox="0 0 24 24" fill="none" xmlns="http://www.w3.org/2000/svg">
<path d="M12.0002 -0.00012207C5.36785 -0.00012207 0.000244141 5.36688 0.000244141 11.9999C0.000244141 18.6322 5.36724 23.9999 12.0002 23.9999C18.6326 23.9999 24.0002 18.6329 24.0002 11.9999C24.0002 5.36749 18.6332 -0.00012207 12.0002 -0.00012207ZM12.0002 22.3255C6.30671 22.3255 1.67467 17.6935 1.67467 11.9999C1.67467 6.3063 6.30671 1.6743 12.0002 1.6743C17.6938 1.6743 22.3258 6.3063 22.3258 11.9999C22.3258 17.6935 17.6938 22.3255 12.0002 22.3255Z" fill="#000"/>
<path d="M11.6452 15.1838C10.9817 15.1838 10.4447 15.7367 10.4447 16.4001C10.4447 17.0477 10.966 17.6164 11.6452 17.6164C12.3244 17.6164 12.8614 17.0477 12.8614 16.4001C12.8614 15.7367 12.3085 15.1838 11.6452 15.1838Z" fill="#000"/>
<path d="M11.8505 5.97485C9.71808 5.97485 8.73877 7.23856 8.73877 8.09149C8.73877 8.70752 9.26002 8.99187 9.68649 8.99187C10.5395 8.99187 10.192 7.77556 11.8031 7.77556C12.5929 7.77556 13.2248 8.12309 13.2248 8.8497C13.2248 9.70263 12.3402 10.1923 11.8189 10.6346C11.3608 11.0294 10.7606 11.6771 10.7606 13.0355C10.7606 13.8568 10.9818 14.0938 11.6294 14.0938C12.4033 14.0938 12.5613 13.7463 12.5613 13.4461C12.5613 12.6248 12.5771 12.1509 13.4459 11.4717C13.8723 11.14 15.2149 10.0659 15.2149 8.5811C15.2149 7.09634 13.8723 5.97485 11.8505 5.97485Z" fill="#000"/>
</svg>
