<svg width="29" height="25" viewBox="0 0 29 25" fill="none" xmlns="http://www.w3.org/2000/svg">
<path d="M25.7045 7.52089H18.4545V3.28644C18.4535 2.42288 18.106 1.59498 17.4882 0.984349C16.8704 0.373717 16.0328 0.0302092 15.1591 0.0291748H3.29545C2.42177 0.0302092 1.58416 0.373717 0.966372 0.984349C0.348581 1.59498 0.00104654 2.42288 0 3.28644V11.1039C0.00104654 11.9674 0.348581 12.7953 0.966372 13.406C1.58416 14.0166 2.42177 14.3601 3.29545 14.3612V15.7227C3.29496 15.9797 3.37185 16.2311 3.51633 16.4447C3.66081 16.6584 3.86635 16.8248 4.10679 16.9227C4.34829 17.0221 4.61425 17.0482 4.87082 16.9977C5.12739 16.9473 5.36297 16.8225 5.54757 16.6393C5.57163 16.6164 5.59368 16.5916 5.61348 16.565L7.25329 14.3612H10.5455V18.5956C10.5465 19.4592 10.894 20.2871 11.5118 20.8977C12.1296 21.5083 12.9672 21.8518 13.8409 21.8529H21.1476L23.4544 24.133C23.6388 24.3151 23.8736 24.4392 24.1293 24.4894C24.3849 24.5397 24.6499 24.5139 24.8908 24.4153C25.1316 24.3167 25.3374 24.1497 25.4823 23.9355C25.6271 23.7213 25.7045 23.4694 25.7045 23.2118V21.8529C26.5782 21.8518 27.4158 21.5083 28.0336 20.8977C28.6514 20.2871 28.9989 19.4592 29 18.5956V10.7782C28.9989 9.91459 28.6514 9.08669 28.0336 8.47606C27.4158 7.86543 26.5782 7.52192 25.7045 7.52089ZM6.92045 13.0582C6.81774 13.0588 6.71658 13.083 6.62503 13.1291C6.53348 13.1751 6.45409 13.2416 6.39318 13.3234L4.61364 15.7077V13.7097C4.61364 13.5369 4.5442 13.3712 4.42059 13.249C4.29699 13.1269 4.12935 13.0582 3.95454 13.0582H3.29545C2.77105 13.0582 2.26812 12.8523 1.89731 12.4858C1.5265 12.1193 1.31818 11.6222 1.31818 11.1039V3.28644C1.31818 2.76811 1.5265 2.27101 1.89731 1.9045C2.26812 1.53799 2.77105 1.33208 3.29545 1.33208H15.1591C15.6835 1.33208 16.1864 1.53799 16.5572 1.9045C16.928 2.27101 17.1364 2.76811 17.1364 3.28644V7.52089H13.8409C13.1397 7.52294 12.4578 7.74792 11.8959 8.16257L9.82704 3.66754C9.77462 3.55381 9.69019 3.45738 9.58385 3.38976C9.4775 3.32214 9.35372 3.28619 9.22727 3.28619C9.10082 3.28619 8.97704 3.32214 8.87069 3.38976C8.76435 3.45738 8.67993 3.55381 8.6275 3.66754L5.33204 10.8335C5.29632 10.9115 5.2765 10.9958 5.27373 11.0813C5.27096 11.1669 5.28529 11.2522 5.3159 11.3323C5.34651 11.4124 5.39279 11.4858 5.45211 11.5482C5.51143 11.6106 5.58261 11.6609 5.66159 11.6961C5.74629 11.7348 5.83847 11.7551 5.93182 11.7553C6.05831 11.7553 6.18212 11.7193 6.28847 11.6516C6.39482 11.5839 6.47922 11.4874 6.53159 11.3736L7.5545 9.14952H10.9014L10.9482 9.2505C10.6877 9.71876 10.5493 10.2438 10.5455 10.7782V13.0582H6.92045ZM10.3022 7.84662H8.15361L9.22727 5.51181L10.3022 7.84662ZM27.6818 18.5956C27.6818 19.1139 27.4735 19.611 27.1027 19.9775C26.7319 20.3441 26.2289 20.55 25.7045 20.55H25.0454C24.8706 20.55 24.703 20.6186 24.5794 20.7408C24.4558 20.8629 24.3864 21.0286 24.3864 21.2014V23.2118L21.8864 20.7408C21.7629 20.6187 21.5952 20.55 21.4204 20.55H13.8409C13.3165 20.55 12.8136 20.3441 12.4428 19.9775C12.072 19.611 11.8636 19.1139 11.8636 18.5956V10.7782C11.8636 10.2598 12.072 9.76273 12.4428 9.39621C12.8136 9.0297 13.3165 8.8238 13.8409 8.8238H25.7045C26.2289 8.8238 26.7319 9.0297 27.1027 9.39621C27.4735 9.76273 27.6818 10.2598 27.6818 10.7782V18.5956Z" fill="#000"/>
<path d="M23.0681 12.4064H20.4318V11.1035C20.4318 10.9307 20.3623 10.765 20.2387 10.6428C20.1151 10.5207 19.9475 10.452 19.7727 10.452C19.5979 10.452 19.4302 10.5207 19.3066 10.6428C19.183 10.765 19.1136 10.9307 19.1136 11.1035V12.4064H16.4772C16.3024 12.4064 16.1348 12.475 16.0112 12.5972C15.8876 12.7194 15.8181 12.8851 15.8181 13.0578C15.8181 13.2306 15.8876 13.3963 16.0112 13.5185C16.1348 13.6407 16.3024 13.7093 16.4772 13.7093H21.3677C21.2063 14.816 20.6368 15.8248 19.7687 16.5418C19.2616 16.1232 18.8518 15.6015 18.5672 15.0122C18.5314 14.9329 18.4799 14.8615 18.4157 14.8022C18.3515 14.7429 18.276 14.6968 18.1936 14.6667C18.1112 14.6367 18.0235 14.6232 17.9358 14.6271C17.848 14.631 17.7619 14.6522 17.6826 14.6894C17.6032 14.7267 17.5322 14.7793 17.4737 14.8441C17.4152 14.9088 17.3704 14.9845 17.3419 15.0667C17.3134 15.1488 17.3018 15.2358 17.3078 15.3224C17.3138 15.409 17.3373 15.4936 17.3769 15.5711C17.6831 16.1988 18.1018 16.7665 18.6127 17.2467C18.0269 17.4933 17.3966 17.6196 16.76 17.618C16.6746 17.6184 16.5902 17.6357 16.5117 17.6689C16.4332 17.702 16.3622 17.7504 16.3029 17.8111C16.2436 17.8718 16.1972 17.9437 16.1665 18.0224C16.1358 18.1011 16.1213 18.1851 16.1239 18.2695C16.1293 18.4446 16.2037 18.6108 16.3312 18.7325C16.4588 18.8542 16.6294 18.9219 16.8068 18.9209C17.8542 18.9205 18.8826 18.6439 19.7858 18.1196C20.6974 18.6418 21.7318 18.9181 22.7854 18.9209C22.8707 18.9205 22.9552 18.9032 23.0337 18.8701C23.1122 18.8369 23.1831 18.7885 23.2424 18.7278C23.3017 18.6671 23.3481 18.5953 23.3788 18.5165C23.4096 18.4378 23.424 18.3538 23.4214 18.2695C23.4161 18.0943 23.3417 17.9281 23.2141 17.8064C23.0865 17.6847 22.9159 17.6171 22.7386 17.618C22.122 17.6156 21.5122 17.4902 20.9458 17.2493C21.9276 16.3057 22.5475 15.0544 22.6997 13.7093H23.0681C23.2429 13.7093 23.4106 13.6407 23.5342 13.5185C23.6578 13.3963 23.7272 13.2306 23.7272 13.0578C23.7272 12.8851 23.6578 12.7194 23.5342 12.5972C23.4106 12.475 23.2429 12.4064 23.0681 12.4064Z" fill="black"/>
</svg>
