<svg width="27" height="28" viewBox="0 0 27 28" fill="none" xmlns="http://www.w3.org/2000/svg">
<path d="M24.222 20.9026C24.222 21.2971 24.1344 21.7025 23.9481 22.0969C23.7618 22.4914 23.5208 22.8639 23.203 23.2145C22.6661 23.8062 22.0744 24.2335 21.4061 24.5075C20.7486 24.7814 20.0364 24.9238 19.2694 24.9238C18.1518 24.9238 16.9575 24.6609 15.6974 24.124C14.4374 23.5871 13.1773 22.8639 11.9282 21.9545C10.6682 21.0341 9.47385 20.0151 8.33432 18.8865C7.20574 17.747 6.18674 16.5527 5.27731 15.3036C4.37883 14.0545 3.65566 12.8054 3.12973 11.5672C2.60379 10.3181 2.34082 9.12379 2.34082 7.98426C2.34082 7.23918 2.4723 6.52697 2.73527 5.86955C2.99824 5.20117 3.41461 4.58758 3.99533 4.03973C4.69658 3.34943 5.46358 3.00977 6.2744 3.00977C6.58119 3.00977 6.88799 3.07551 7.16192 3.20699C7.4468 3.33848 7.69881 3.5357 7.89604 3.82059L10.4381 7.40354C10.6353 7.67746 10.7777 7.92948 10.8764 8.17053C10.975 8.40063 11.0298 8.63073 11.0298 8.83891C11.0298 9.10188 10.9531 9.36485 10.7997 9.61686C10.6572 9.86887 10.449 10.1318 10.1861 10.3948L9.35332 11.2604C9.2328 11.3809 9.17801 11.5234 9.17801 11.6987C9.17801 11.7864 9.18897 11.8631 9.21088 11.9507C9.24375 12.0384 9.27662 12.1041 9.29854 12.1698C9.49577 12.5314 9.83543 13.0026 10.3175 13.5723C10.8106 14.1421 11.3365 14.7228 11.9063 15.3036C12.498 15.8843 13.0678 16.4212 13.6485 16.9142C14.2182 17.3964 14.6894 17.7251 15.0619 17.9223C15.1167 17.9442 15.1825 17.9771 15.2592 18.0099C15.3468 18.0428 15.4345 18.0538 15.5331 18.0538C15.7194 18.0538 15.8618 17.988 15.9823 17.8675L16.8151 17.0457C17.089 16.7718 17.352 16.5636 17.604 16.4321C17.856 16.2787 18.108 16.202 18.3819 16.202C18.5901 16.202 18.8092 16.2459 19.0503 16.3445C19.2914 16.4431 19.5434 16.5855 19.8173 16.7718L23.4441 19.3467C23.729 19.5439 23.9262 19.774 24.0467 20.048C24.1563 20.3219 24.222 20.5958 24.222 20.9026Z" stroke="#000" stroke-width="1.64356" stroke-miterlimit="10"/>
</svg>
