<svg width="10" height="15" viewBox="0 0 10 15" fill="none" xmlns="http://www.w3.org/2000/svg">
<path d="M6.97131 7.32249L1.23177 1.84592C1.07373 1.69548 0.986791 1.49435 0.986791 1.27988C0.986791 1.0653 1.07373 0.864284 1.23177 0.713612L1.7347 0.233983C1.89249 0.0830722 2.10342 0 2.32819 0C2.55296 0 2.76364 0.0830722 2.92155 0.233983L9.75539 6.75432C9.91393 6.90547 10.0007 7.10743 10.0001 7.32214C10.0007 7.53779 9.91405 7.73952 9.75539 7.89079L2.92791 14.4048C2.77 14.5557 2.55932 14.6388 2.33442 14.6388C2.10965 14.6388 1.89898 14.5557 1.74094 14.4048L1.23813 13.9252C0.910952 13.613 0.910952 13.1048 1.23813 12.7928L6.97131 7.32249Z" fill="#000"/>
</svg>
