<svg width="21" height="26" viewBox="0 0 21 26" fill="none" xmlns="http://www.w3.org/2000/svg">
<path d="M17.2824 3.07341L10.7633 0.911549L10.7633 0.911545L10.7622 0.911208C10.6304 0.868545 10.4869 0.868404 10.3555 0.911341L10.3549 0.911545L3.74886 3.10154L3.74878 3.10157C1.75152 3.76492 0.410059 5.62222 0.410059 7.72592V12.9619C0.410059 16.3239 2.2311 19.0359 4.30992 21.0366C6.38071 23.0297 8.72311 24.3328 9.83285 24.889L9.83642 24.8918C9.84728 24.9003 9.86271 24.9119 9.88212 24.9257C9.9208 24.9532 9.97594 24.9898 10.0426 25.0264C10.1726 25.0978 10.3612 25.1779 10.5631 25.1779C10.7584 25.1779 10.9378 25.1152 11.0634 25.057C11.1271 25.0275 11.1796 24.9979 11.2164 24.9755C11.2349 24.9643 11.2496 24.9548 11.2599 24.9479L11.2613 24.9469C12.375 24.4977 14.7242 23.4029 16.8012 21.4794C18.8898 19.5452 20.7101 16.7659 20.7101 12.9619V7.72592C20.7101 5.62127 19.3676 3.76287 17.3712 3.10153L17.2834 3.07243L17.2824 3.07341ZM10.7591 23.7488L10.7585 23.749L10.5904 23.8174L10.4271 23.7358C9.4013 23.2228 7.21578 22.0134 5.2888 20.1851C3.36055 18.3556 1.70906 15.9241 1.70906 12.9649V7.72892C1.70906 6.18658 2.69263 4.82396 4.15727 4.3383L4.15728 4.3383L10.5591 2.21496L16.9608 4.33829C16.9608 4.33829 16.9608 4.3383 16.9608 4.3383C18.4245 4.82397 19.4091 6.18663 19.4091 7.72892V12.9639C19.4091 16.3465 17.7641 18.8339 15.8552 20.5837C13.9444 22.3352 11.777 23.3395 10.7591 23.7488ZM10.5591 7.87892C9.09722 7.87892 7.90906 9.06708 7.90906 10.5289C7.90906 11.7669 8.76083 12.8082 9.90906 13.0985V16.5289C9.90906 16.8878 10.2002 17.1789 10.5591 17.1789C10.9179 17.1789 11.2091 16.8878 11.2091 16.5289V13.0985C12.3573 12.8082 13.2091 11.7669 13.2091 10.5289C13.2091 9.06708 12.0209 7.87892 10.5591 7.87892ZM10.5591 11.8789C9.8149 11.8789 9.20906 11.2731 9.20906 10.5289C9.20906 9.78477 9.8149 9.17892 10.5591 9.17892C11.3032 9.17892 11.9091 9.78477 11.9091 10.5289C11.9091 11.2731 11.3032 11.8789 10.5591 11.8789Z" fill="#000" stroke="#000" stroke-width="0.3"/>
</svg>