<svg width="20" height="19" viewBox="0 0 20 19" fill="none" xmlns="http://www.w3.org/2000/svg">
<path d="M18.8067 6.69052C18.4177 6.63402 18.0464 6.49048 17.7206 6.2706C17.3947 6.05073 17.1227 5.76017 16.9247 5.42058C16.7267 5.08099 16.6079 4.70111 16.577 4.30923C16.5462 3.91734 16.6042 3.52356 16.7467 3.15719C16.8372 2.91768 16.8506 2.65582 16.7848 2.40834C16.7191 2.16086 16.5775 1.94017 16.38 1.77719C15.508 1.04497 14.5155 0.469754 13.4467 0.0771927C13.2033 -0.0132186 12.9376 -0.0245148 12.6874 0.0449133C12.4372 0.114341 12.2153 0.260952 12.0533 0.463859C11.8095 0.775628 11.4979 1.02778 11.1421 1.2012C10.7864 1.37462 10.3958 1.46474 10 1.46474C9.60422 1.46474 9.21364 1.37462 8.85787 1.2012C8.5021 1.02778 8.19049 0.775628 7.94668 0.463859C7.78469 0.260952 7.5628 0.114341 7.31262 0.0449133C7.06244 -0.0245148 6.79673 -0.0132186 6.55334 0.0771927C5.56645 0.439621 4.64374 0.957242 3.82001 1.61052C3.61237 1.7749 3.46282 2.00144 3.39324 2.25696C3.32366 2.51248 3.33771 2.78357 3.43335 3.03052C3.58718 3.40658 3.65074 3.81346 3.61893 4.21852C3.58711 4.62358 3.46081 5.01555 3.25015 5.36298C3.03948 5.71041 2.75033 6.00363 2.40587 6.21912C2.06142 6.43462 1.67126 6.56639 1.26668 6.60385C1.00402 6.63194 0.757314 6.74361 0.562888 6.92244C0.368462 7.10126 0.236588 7.33779 0.186681 7.59719C0.0625461 8.21165 1.44269e-05 8.83697 1.44269e-05 9.46385C-0.000897968 9.98867 0.0414678 10.5127 0.126681 11.0305C0.169091 11.2982 0.298512 11.5445 0.494934 11.7313C0.691356 11.9181 0.943839 12.035 1.21335 12.0638C1.62681 12.1027 2.02496 12.2399 2.37448 12.4642C2.724 12.6884 3.01472 12.9932 3.2223 13.3528C3.42988 13.7125 3.54829 14.1167 3.56761 14.5315C3.58693 14.9463 3.5066 15.3598 3.33335 15.7372C3.21996 15.9827 3.19184 16.259 3.25344 16.5223C3.31504 16.7856 3.46283 17.0208 3.67334 17.1905C4.54009 17.9094 5.52306 18.4753 6.58001 18.8638C6.71517 18.9107 6.85698 18.9354 7.00001 18.9372C7.19612 18.9368 7.38927 18.8893 7.56327 18.7988C7.73726 18.7084 7.88703 18.5775 8.00001 18.4172C8.23762 18.071 8.55613 17.788 8.9279 17.5928C9.29967 17.3977 9.71345 17.2962 10.1333 17.2972C10.5402 17.2977 10.9413 17.3932 11.3047 17.5761C11.6681 17.7589 11.9838 18.0241 12.2267 18.3505C12.3882 18.5677 12.617 18.7253 12.8775 18.7988C13.1379 18.8724 13.4154 18.8577 13.6667 18.7572C14.6331 18.3682 15.5329 17.8306 16.3333 17.1638C16.5344 16.9976 16.6776 16.7719 16.7423 16.5191C16.807 16.2663 16.7898 15.9996 16.6933 15.7572C16.5365 15.386 16.4682 14.9834 16.4936 14.5812C16.5191 14.1791 16.6377 13.7883 16.84 13.4398C17.0424 13.0914 17.323 12.7947 17.6597 12.5733C17.9963 12.3518 18.3799 12.2117 18.78 12.1638C19.0395 12.128 19.2808 12.0104 19.4689 11.8282C19.6571 11.646 19.7824 11.4087 19.8267 11.1505C19.9337 10.5945 19.9917 10.0301 20 9.46385C20.0001 8.86662 19.9443 8.27068 19.8333 7.68385C19.7883 7.43139 19.6649 7.19952 19.4806 7.02121C19.2963 6.84289 19.0605 6.72718 18.8067 6.69052ZM13.3333 9.46385C13.3333 10.1231 13.1378 10.7676 12.7716 11.3158C12.4053 11.8639 11.8847 12.2912 11.2756 12.5434C10.6665 12.7957 9.99631 12.8618 9.34971 12.7331C8.7031 12.6045 8.10916 12.287 7.64299 11.8209C7.17681 11.3547 6.85934 10.7608 6.73072 10.1142C6.60211 9.46755 6.66812 8.79733 6.92041 8.18824C7.1727 7.57916 7.59994 7.05856 8.14811 6.69229C8.69627 6.32602 9.34074 6.13052 10 6.13052C10.8841 6.13052 11.7319 6.48171 12.357 7.10683C12.9821 7.73195 13.3333 8.5798 13.3333 9.46385Z" fill="white"/>
</svg>