<svg width="23" height="24" viewBox="0 0 23 24" fill="none" xmlns="http://www.w3.org/2000/svg">
<path d="M2.58221 15.417V17.9812C2.58221 19.4355 3.76374 20.6218 5.21204 20.6218H7.76581L9.57615 22.4396C10.0717 22.9371 10.7387 23.2146 11.4343 23.2146C12.1299 23.2146 12.7969 22.9371 13.2924 22.4396L15.1028 20.6218H17.6565C19.1048 20.6218 20.2864 19.4355 20.2864 17.9812V15.417L22.0967 13.5993C22.5922 13.1018 22.8686 12.432 22.8686 11.7336C22.8686 11.0351 22.5922 10.3653 22.0967 9.86799L20.2864 8.05008V5.48604C20.2864 4.03165 19.1048 2.84528 17.6565 2.84528H15.1028L13.2924 1.02755C12.3014 0.032485 10.5672 0.032485 9.57615 1.02755L7.76581 2.84528H5.21204C3.76374 2.84528 2.58221 4.03165 2.58221 5.48604V8.05008L0.77187 9.86799C0.276366 10.3653 0 11.0351 0 11.7336C0 12.432 0.276366 13.1018 0.77187 13.5993L2.58221 15.417ZM11.4343 5.99304C11.8249 5.99304 12.1489 6.31836 12.1489 6.7106V16.7565C12.1489 17.1487 11.8249 17.4741 11.4343 17.4741C8.11842 17.4741 5.71714 15.0631 5.71714 11.7336C5.71714 8.40413 8.11842 5.99304 11.4343 5.99304Z" fill="#000"/>
</svg>
