<svg width="24" height="27" viewBox="0 0 24 27" fill="none" xmlns="http://www.w3.org/2000/svg">
<path d="M23.0995 22.2654C23.1045 19.1297 21.7821 16.1394 19.463 14.0306L19.4629 14.0305C18.4714 13.1315 16.9971 13.0082 15.8718 13.7326C14.7521 14.4513 13.416 14.8336 11.9995 14.8336C10.583 14.8336 9.24683 14.4513 8.12714 13.7326C7.00191 13.0082 5.52757 13.1315 4.53613 14.0305L4.53602 14.0306C2.21681 16.1395 0.899512 19.1298 0.899512 22.2653L0.899511 23.536L0.899512 23.5363C0.904648 25.1798 2.23483 26.5099 3.87826 26.5151H3.87857H20.1155C21.7591 26.5151 23.0944 25.1848 23.0995 23.5363V23.536V22.2654ZM23.0995 22.2654L22.9995 22.2653M23.0995 22.2654V22.2653H22.9995M22.9995 22.2653V23.536L8.07306 13.8167C9.20979 14.5464 10.5649 14.9336 11.9995 14.9336C13.4341 14.9336 14.7892 14.5464 15.9259 13.8167C17.013 13.1168 18.4377 13.2359 19.3957 14.1046C21.694 16.1944 23.0045 19.1579 22.9995 22.2653ZM16.5062 14.7347C17.1778 14.3027 18.0563 14.3776 18.6485 14.9133C20.7174 16.8006 21.8968 19.4691 21.8968 22.2653V23.536C21.8968 24.5232 21.0977 25.3223 20.1105 25.3223H3.87369C2.88639 25.3174 2.09216 24.5231 2.08733 23.5358V22.2653C2.08733 19.4689 3.26683 16.7954 5.33576 14.9132L5.33589 14.9131C5.65996 14.6172 6.08266 14.4528 6.52433 14.4528C6.86262 14.4528 7.1958 14.5516 7.47189 14.7341L7.47189 14.7341L7.47291 14.7347C8.78549 15.5796 10.3482 16.0264 11.9896 16.0264C13.6309 16.0264 15.1936 15.5796 16.5062 14.7347ZM16.5062 14.7347L16.4521 14.6506M16.5062 14.7347L16.4521 14.6506M16.4521 14.6506C15.1565 15.4846 13.6128 15.9264 11.9896 15.9264C10.3664 15.9264 8.82261 15.4846 7.52703 14.6506M16.4521 14.6506C17.162 14.194 18.0902 14.2734 18.7157 14.8393C20.8055 16.7454 21.9968 19.4408 21.9968 22.2653V23.536C21.9968 24.5784 21.1529 25.4223 20.1105 25.4223L7.52703 14.6506M7.52703 14.6506C7.23416 14.457 6.88173 14.3528 6.52433 14.3528C6.05772 14.3528 5.61097 14.5265 5.26846 14.8393C3.17866 16.7404 1.98733 19.4408 1.98733 22.2653L7.52703 14.6506Z" fill="#3D4260" stroke="#000" stroke-width="0.2"/>
<path d="M5.49619 7.40343L5.49619 7.40357C5.50123 10.993 8.41006 13.9018 11.9995 13.9069H11.9996C15.5843 13.9069 18.498 10.9879 18.503 7.40357L18.503 7.40329C18.498 3.81387 15.5892 0.905041 11.9998 0.9H11.9996C8.41004 0.9 5.49619 3.81892 5.49619 7.40343ZM6.68897 7.40839C6.68897 4.47535 9.06658 2.09774 11.9996 2.09774C14.9324 2.09774 17.3053 4.47515 17.3103 7.40839C17.3103 10.3414 14.9327 12.719 11.9996 12.719C9.06658 12.719 6.68897 10.3414 6.68897 7.40839Z" fill="#3D4260" stroke="#000" stroke-width="0.2"/>
</svg>
