<svg width="23" height="27" viewBox="0 0 23 27" fill="none" xmlns="http://www.w3.org/2000/svg">
<path d="M22.4999 22.2652C22.5049 19.1295 21.1825 16.1391 18.8634 14.0304L18.8633 14.0303C17.8718 13.1313 16.3974 13.0079 15.2722 13.7324C14.1525 14.4511 12.8164 14.8333 11.3999 14.8333C9.98339 14.8333 8.64723 14.4511 7.52754 13.7323C6.40231 13.0079 4.92796 13.1313 3.93652 14.0303L3.93642 14.0304C1.6172 16.1392 0.299902 19.1296 0.299902 22.265L0.299902 23.5358L0.299903 23.5361C0.305039 25.1795 1.63522 26.5097 3.27865 26.5148H3.27896H19.5159C21.1595 26.5148 22.4948 25.1845 22.4999 23.5361V23.5358V22.2652ZM22.4999 22.2652L22.3999 22.265M22.4999 22.2652V22.265H22.3999M22.3999 22.265V23.5358L7.47345 13.8165C8.61019 14.5461 9.96533 14.9333 11.3999 14.9333C12.8345 14.9333 14.1896 14.5461 15.3263 13.8165C16.4134 13.1165 17.8381 13.2357 18.7961 14.1044C21.0944 16.1942 22.4049 19.1576 22.3999 22.265ZM15.9066 14.7345C16.5781 14.3025 17.4567 14.3774 18.0489 14.9131C20.1178 16.8003 21.2972 19.4688 21.2972 22.265V23.5358C21.2972 24.523 20.4981 25.322 19.5109 25.322H3.27408C2.28678 25.3171 1.49255 24.5229 1.48772 23.5355V22.265C1.48772 19.4687 2.66722 16.7952 4.73615 14.913L4.73628 14.9129C5.06035 14.617 5.48305 14.4526 5.92472 14.4526C6.26302 14.4526 6.59619 14.5513 6.87228 14.7338L6.87228 14.7338L6.8733 14.7345C8.18588 15.5794 9.74863 16.0261 11.39 16.0261C13.0313 16.0261 14.594 15.5794 15.9066 14.7345ZM15.9066 14.7345L15.8525 14.6504M15.9066 14.7345L15.8525 14.6504M15.8525 14.6504C14.5569 15.4843 13.0132 15.9261 11.39 15.9261C9.76677 15.9261 8.223 15.4843 6.92743 14.6504M15.8525 14.6504C16.5623 14.1937 17.4906 14.2731 18.116 14.839C20.2058 16.7452 21.3972 19.4406 21.3972 22.265V23.5358C21.3972 24.5782 20.5533 25.422 19.5109 25.422L6.92743 14.6504M6.92743 14.6504C6.63456 14.4568 6.28212 14.3526 5.92472 14.3526C5.45811 14.3526 5.01136 14.5263 4.66885 14.839C2.57905 16.7402 1.38772 19.4406 1.38772 22.265L6.92743 14.6504Z" fill="#000" stroke="white" stroke-width="0.2"/>
<path d="M4.89658 7.40343L4.89658 7.40357C4.90162 10.993 7.81045 13.9018 11.3999 13.9069H11.4C14.9847 13.9069 17.8984 10.9879 17.9034 7.40357L17.9034 7.40329C17.8984 3.81387 14.9896 0.905041 11.4001 0.9H11.4C7.81044 0.9 4.89658 3.81892 4.89658 7.40343ZM6.08936 7.40839C6.08936 4.47535 8.46697 2.09774 11.4 2.09774C14.3328 2.09774 16.7057 4.47515 16.7107 7.40839C16.7107 10.3414 14.333 12.719 11.4 12.719C8.46697 12.719 6.08936 10.3414 6.08936 7.40839Z" fill="#000" stroke="white" stroke-width="0.2"/>
</svg>
