<svg width="23" height="24" viewBox="0 0 23 24" fill="none" xmlns="http://www.w3.org/2000/svg">
<path d="M0.637353 14.9214C0.468317 14.9214 0.306203 14.9885 0.186677 15.108C0.0671496 15.2274 0 15.3895 0 15.5584V20.6547C0 22.4083 1.43232 23.8399 3.18677 23.8399H8.28559C8.45463 23.8399 8.61674 23.7728 8.73627 23.6533C8.8558 23.5339 8.92295 23.3718 8.92295 23.2029C8.92295 23.0339 8.8558 22.8719 8.73627 22.7524C8.61674 22.6329 8.45463 22.5658 8.28559 22.5658H3.18677C2.11647 22.5658 1.27471 21.7245 1.27471 20.6547V15.5584C1.27471 15.3895 1.20756 15.2274 1.08803 15.108C0.968503 14.9885 0.80639 14.9214 0.637353 14.9214Z" fill="#000"/>
<path d="M22.3073 14.9214C22.1383 14.9214 21.9762 14.9885 21.8566 15.108C21.7371 15.2274 21.67 15.3895 21.67 15.5584V20.6547C21.67 21.7245 20.8282 22.5658 19.7579 22.5658H14.6591C14.49 22.5658 14.3279 22.6329 14.2084 22.7524C14.0889 22.8719 14.0217 23.0339 14.0217 23.2029C14.0217 23.3718 14.0889 23.5339 14.2084 23.6533C14.3279 23.7728 14.49 23.8399 14.6591 23.8399H19.7579C21.5123 23.8399 22.9447 22.4083 22.9447 20.6547V15.5584C22.9447 15.3895 22.8775 15.2274 22.758 15.108C22.6385 14.9885 22.4764 14.9214 22.3073 14.9214Z" fill="#000"/>
<path d="M3.18677 0.906738C1.43233 0.906738 0 2.33835 0 4.09192V9.18822C0 9.35717 0.0671496 9.51921 0.186677 9.63867C0.306203 9.75814 0.468317 9.82526 0.637353 9.82526C0.80639 9.82526 0.968503 9.75814 1.08803 9.63867C1.20756 9.51921 1.27471 9.35717 1.27471 9.18822V4.09192C1.27471 3.02215 2.11647 2.18081 3.18677 2.18081H8.28559C8.45463 2.18081 8.61674 2.1137 8.73627 1.99423C8.8558 1.87476 8.92295 1.71273 8.92295 1.54378C8.92295 1.37482 8.8558 1.21279 8.73627 1.09332C8.61674 0.973855 8.45463 0.906738 8.28559 0.906738H3.18677Z" fill="#000"/>
<path d="M14.6591 0.906738C14.49 0.906738 14.3279 0.973855 14.2084 1.09332C14.0889 1.21279 14.0217 1.37482 14.0217 1.54378C14.0217 1.71273 14.0889 1.87476 14.2084 1.99423C14.3279 2.1137 14.49 2.18081 14.6591 2.18081H19.7579C20.8282 2.18081 21.67 3.02215 21.67 4.09192V9.18822C21.67 9.35717 21.7371 9.51921 21.8566 9.63867C21.9762 9.75814 22.1383 9.82526 22.3073 9.82526C22.4764 9.82526 22.6385 9.75814 22.758 9.63867C22.8775 9.51921 22.9447 9.35717 22.9447 9.18822V4.09192C22.9447 2.33835 21.5123 0.906738 19.7579 0.906738H14.6591Z" fill="#000"/>
<path d="M8.72628 11.0993C8.29608 11.1058 7.86782 11.3142 7.63083 11.7214L4.00091 17.9599C3.48494 18.8464 4.15987 20.0178 5.18599 20.0178H17.7687C18.7934 20.0178 19.4625 18.8387 18.9364 17.9599L16.0185 13.0875C15.5335 12.2773 14.3108 12.2465 13.7878 13.0328L12.2342 15.3719C12.1971 15.4277 12.1701 15.4263 12.1346 15.3694L9.83916 11.689C9.58987 11.2893 9.15649 11.0927 8.72628 11.0993Z" fill="#000"/>
<path d="M17.2086 4.729C16.1601 4.729 15.2965 5.59219 15.2965 6.64012C15.2965 7.68805 16.1601 8.55123 17.2086 8.55123C18.257 8.55123 19.1207 7.68805 19.1207 6.64012C19.1207 5.59219 18.257 4.729 17.2086 4.729Z" fill="#000"/>
</svg>
