<svg width="150" height="150" viewBox="0 0 150 150" fill="none" xmlns="http://www.w3.org/2000/svg">
<path d="M36.0769 75C36.0769 78.187 33.4947 80.7692 30.3077 80.7692H18.7692C15.5822 80.7692 13 78.187 13 75C13 71.813 15.5822 69.2308 18.7692 69.2308H30.3077C33.495 69.2308 36.0769 71.813 36.0769 75ZM36.0769 38.0769C36.0769 34.8899 33.4947 32.3077 30.3077 32.3077H18.7692C15.5822 32.3077 13 34.8899 13 38.0769C13 41.2639 15.5822 43.8462 18.7692 43.8462H30.3077C33.495 43.8462 36.0769 41.2639 36.0769 38.0769ZM36.0769 111.923C36.0769 108.736 33.4947 106.154 30.3077 106.154H18.7692C15.5822 106.154 13 108.736 13 111.923C13 115.11 15.5822 117.693 18.7692 117.693H30.3077C33.495 117.693 36.0769 115.11 36.0769 111.923ZM137.615 18.4615V131.538C137.615 141.734 129.349 150 119.155 150H38.3853C28.19 150 19.9238 141.734 19.9238 131.538V122.308H30.3084C36.0338 122.308 40.693 117.648 40.693 111.923C40.693 106.198 36.0338 101.538 30.3084 101.538H19.9231V85.3839H30.3077C36.0331 85.3839 40.6923 80.7248 40.6923 74.9993C40.6923 69.2739 36.0331 64.6147 30.3077 64.6147H19.9231V48.4609H30.3077C36.0331 48.4609 40.6923 43.8017 40.6923 38.0762C40.6923 32.3508 36.0331 27.6916 30.3077 27.6916H19.9231V18.4615C19.9231 8.26629 28.1894 0 38.3846 0H119.154C129.349 0 137.615 8.26595 137.615 18.4615ZM64.4293 54.7246C64.4293 64.5553 72.4 72.526 82.2308 72.526C92.0619 72.526 100.032 64.5553 100.032 54.7246C100.032 44.8938 92.0619 36.9227 82.2308 36.9227C72.4003 36.9231 64.4293 44.8938 64.4293 54.7246ZM109.923 98.2405C109.923 87.3183 101.066 78.4612 90.1438 78.4612H74.3201C63.3956 78.4612 54.5385 87.3187 54.5385 98.2405V106.154H109.923V98.2405Z" fill="#000"/>
</svg>