<svg width="150" height="150" viewBox="0 0 150 150" fill="none" xmlns="http://www.w3.org/2000/svg">
<path d="M149.925 113.27C148.597 123.413 143.63 132.729 135.948 139.485C128.266 146.241 118.393 149.977 108.163 150C48.5229 150 0 101.477 0 41.8374C0.0225516 31.6074 3.75921 21.7337 10.5152 14.052C17.2713 6.37034 26.5869 1.40336 36.7302 0.0745854C39.316 -0.212114 41.9258 0.33229 44.1813 1.62885C46.4367 2.9254 48.2206 4.90671 49.2741 7.28543L64.3718 42.5134C65.1549 44.3419 65.4689 46.3372 65.2853 48.3179C65.1016 50.2986 64.4262 52.202 63.3202 53.8554L50.8514 72.9341C56.4976 84.3925 65.8008 93.6429 77.2912 99.2237L96.1445 86.6798C97.7962 85.5664 99.7045 84.8925 101.689 84.7216C103.674 84.5508 105.669 84.8886 107.487 85.7033L142.715 100.726C145.093 101.779 147.075 103.563 148.371 105.819C149.668 108.074 150.212 110.684 149.925 113.27V113.27ZM94.1916 17.5759C103.338 20.0748 111.675 24.9154 118.38 31.6201C125.085 38.3248 129.925 46.6618 132.424 55.8084C132.756 57.0925 133.503 58.231 134.549 59.0462C135.595 59.8613 136.882 60.3075 138.208 60.3152C138.742 60.3142 139.272 60.2383 139.785 60.0898C140.549 59.89 141.265 59.5396 141.892 59.0594C142.519 58.5792 143.043 57.9787 143.435 57.2932C143.827 56.6077 144.078 55.8508 144.173 55.067C144.269 54.2833 144.207 53.4883 143.991 52.7287C140.987 41.5271 135.088 31.313 126.888 23.1123C118.687 14.9115 108.473 9.01282 97.2712 6.00851C96.4874 5.72295 95.6527 5.60373 94.8203 5.65844C93.9878 5.71315 93.1759 5.94058 92.4362 6.32627C91.6965 6.71195 91.0452 7.24743 90.5238 7.89862C90.0023 8.54981 89.6222 9.30243 89.4076 10.1086C89.193 10.9147 89.1485 11.7567 89.2772 12.581C89.4058 13.4052 89.7046 14.1937 90.1546 14.8961C90.6047 15.5985 91.196 16.1996 91.891 16.6609C92.5861 17.1223 93.3696 17.4339 94.1916 17.5759V17.5759ZM87.9572 40.7858C93.0415 42.1775 97.6756 44.8697 101.403 48.5971C105.13 52.3244 107.822 56.9585 109.214 62.0428C109.534 63.3333 110.278 64.4791 111.327 65.2963C112.375 66.1136 113.668 66.5549 114.998 66.5495C115.507 66.5545 116.015 66.4784 116.5 66.3242C117.271 66.1326 117.995 65.7882 118.63 65.3115C119.265 64.8348 119.798 64.2355 120.198 63.5491C120.597 62.8626 120.854 62.103 120.955 61.3153C121.055 60.5276 120.996 59.7277 120.782 58.9631C118.885 51.8237 115.134 45.3125 109.911 40.089C104.688 34.8655 98.1763 31.1153 91.0369 29.2184C90.253 28.9328 89.4183 28.8136 88.5859 28.8683C87.7535 28.923 86.9416 29.1505 86.2018 29.5362C85.4621 29.9218 84.8108 30.4573 84.2894 31.1085C83.7679 31.7597 83.3878 32.5123 83.1732 33.3185C82.9586 34.1246 82.9142 34.9666 83.0428 35.7909C83.1714 36.6151 83.4702 37.4036 83.9203 38.106C84.3703 38.8084 84.9616 39.4095 85.6567 39.8708C86.3517 40.3322 87.1352 40.6438 87.9572 40.7858V40.7858Z" fill="#000"/>
</svg>
