<svg width="152" height="151" viewBox="0 0 152 151" fill="none" xmlns="http://www.w3.org/2000/svg">
<path d="M76.2908 0.21054C56.3926 0.194413 37.2985 8.06302 23.1889 22.0937C9.07928 36.1244 1.10369 55.174 1.00821 75.0721L0.830725 138.358C0.821958 141.484 2.05532 144.485 4.25948 146.702C6.46365 148.918 9.45806 150.168 12.584 150.177L75.8698 150.355C95.7801 150.411 114.897 142.555 129.015 128.515C143.134 114.476 151.097 95.4035 151.152 75.4932C151.208 55.5828 143.352 36.4657 129.313 22.3475C115.274 8.22929 96.2012 0.266379 76.2908 0.21054V0.21054ZM40.012 87.1931C38.2303 87.1881 36.49 86.6549 35.0113 85.6608C33.5326 84.6668 32.3819 83.2566 31.7047 81.6086C31.0275 79.9605 30.8541 78.1487 31.2066 76.4022C31.5591 74.6556 32.4216 73.0529 33.6851 71.7965C34.9485 70.5402 36.5561 69.6867 38.3045 69.344C40.053 69.0013 41.8639 69.1847 43.5081 69.8712C45.1523 70.5577 46.556 71.7163 47.5417 73.2005C48.5275 74.6848 49.0509 76.428 49.0459 78.2097C49.0392 80.599 48.0837 82.8877 46.3895 84.5724C44.6953 86.2571 42.4012 87.1998 40.012 87.1931ZM76.0466 87.2942C74.2649 87.2892 72.5246 86.7559 71.0459 85.7619C69.5672 84.7678 68.4165 83.3576 67.7393 81.7096C67.0621 80.0616 66.8887 78.2498 67.2412 76.5032C67.5937 74.7567 68.4562 73.1539 69.7197 71.8976C70.9831 70.6412 72.5907 69.7877 74.3392 69.445C76.0876 69.1023 77.8985 69.2858 79.5427 69.9723C81.1869 70.6587 82.5906 71.8173 83.5763 73.3016C84.5621 74.7858 85.0855 76.529 85.0805 78.3108C85.0738 80.7 84.1183 82.9887 82.4241 84.6734C80.7299 86.3582 78.4358 87.3009 76.0466 87.2942ZM112.081 87.3952C110.299 87.3902 108.559 86.857 107.081 85.8629C105.602 84.8689 104.451 83.4587 103.774 81.8107C103.097 80.1627 102.923 78.3508 103.276 76.6043C103.628 74.8578 104.491 73.255 105.754 71.9986C107.018 70.7423 108.625 69.8888 110.374 69.5461C112.122 69.2034 113.933 69.3869 115.577 70.0733C117.221 70.7598 118.625 71.9184 119.611 73.4026C120.597 74.8869 121.12 76.6301 121.115 78.4118C121.108 80.8011 120.153 83.0898 118.459 84.7745C116.764 86.4592 114.47 87.4019 112.081 87.3952Z" fill="#000"/>
</svg>
