<svg width="150" height="150" viewBox="0 0 150 150" fill="none" xmlns="http://www.w3.org/2000/svg">
<path d="M145.833 0H37.5006C35.1996 0 33.3334 1.97592 33.3334 4.41229V136.765C33.3182 141.552 31.8182 146.203 29.0625 150H129.168C140.668 149.987 149.988 140.119 150.001 127.94V4.41229C150.001 1.97592 148.134 0 145.833 0ZM120.833 114.705H62.5006C60.1996 114.705 58.3334 112.731 58.3334 110.294C58.3334 107.858 60.1996 105.882 62.5006 105.882H120.833C123.134 105.882 125.001 107.858 125.001 110.294C125.001 112.731 123.134 114.705 120.833 114.705ZM120.833 88.2344H62.5006C60.1996 88.2344 58.3334 86.2601 58.3334 83.8238C58.3334 81.3874 60.1996 79.4115 62.5006 79.4115H120.833C123.134 79.4115 125.001 81.3874 125.001 83.8238C125.001 86.2601 123.134 88.2344 120.833 88.2344ZM120.833 61.7639H62.5006C60.1996 61.7639 58.3334 59.7896 58.3334 57.3533C58.3334 54.9169 60.1996 52.941 62.5006 52.941H120.833C123.134 52.941 125.001 54.9169 125.001 57.3533C125.001 59.7896 123.134 61.7639 120.833 61.7639ZM120.833 35.2935H62.5006C60.1996 35.2935 58.3334 33.3192 58.3334 30.8828C58.3334 28.4464 60.1996 26.4705 62.5006 26.4705H120.833C123.134 26.4705 125.001 28.4464 125.001 30.8828C125.001 33.3192 123.134 35.2935 120.833 35.2935Z" fill="#000"/>
<path d="M20.8328 17.6484H4.16718C1.86615 17.6484 0 19.6227 0 22.0591V136.766C0 144.075 5.59693 150.001 12.5 150.001C19.4031 150.001 25 144.075 25 136.766V22.0591C25 19.6227 23.1339 17.6484 20.8328 17.6484Z" fill="#000"/>
</svg>
