<svg width="19" height="18" viewBox="0 0 19 18" fill="none" xmlns="http://www.w3.org/2000/svg">
<path d="M4.57671 3.6974L11.9066 1.69666L11.5184 0.912052C11.2644 0.402058 10.645 0.191453 10.135 0.445418L3.57324 3.6974H4.57671Z" fill="#000"/>
<path d="M14.1817 1.75439C14.0909 1.75439 14 1.76678 13.9092 1.79156L12.1872 2.26232L6.92822 3.69733H12.8974H15.499L15.1769 2.51629C15.053 2.05585 14.6359 1.75439 14.1817 1.75439Z" fill="#000"/>
<path d="M16.5748 4.41992H16.3394H16.0194H15.6994H13.2568H4.28128H3.10437H2.11329H1.92952H1.31423C0.987996 4.41992 0.696865 4.57065 0.506908 4.8081C0.420188 4.91753 0.354116 5.04348 0.316951 5.18182C0.294238 5.26854 0.279785 5.35938 0.279785 5.4523V5.57618V6.75309V16.955C0.279785 17.5249 0.74229 17.9874 1.31216 17.9874H16.5728C17.1426 17.9874 17.6051 17.5249 17.6051 16.955V14.0747H11.479C10.5106 14.0747 9.72397 13.288 9.72397 12.3197V11.374V11.054V10.7339V10.0237C9.72397 9.54877 9.9139 9.11726 10.2216 8.80135C10.4941 8.52052 10.8596 8.33056 11.2684 8.28308C11.3365 8.27484 11.4067 8.27069 11.4769 8.27069H16.7462H17.0662H17.3863H17.6051V5.4523C17.6072 4.88243 17.1447 4.41992 16.5748 4.41992Z" fill="#000"/>
<path d="M18.33 9.25777C18.2268 9.16279 18.1049 9.09052 17.9687 9.04303C17.8633 9.00795 17.7519 8.9873 17.6342 8.9873H17.6073H17.5867H17.2667H16.1125H11.4792C10.9093 8.9873 10.4468 9.44979 10.4468 10.0197V10.5338V10.8538V11.1739V12.3177C10.4468 12.8876 10.9093 13.3501 11.4792 13.3501H17.6073H17.6342C17.7519 13.3501 17.8634 13.3295 17.9687 13.2944C18.1049 13.2489 18.2268 13.1746 18.33 13.0796C18.5365 12.8917 18.6666 12.6192 18.6666 12.3178V10.0197C18.6666 9.71821 18.5365 9.44564 18.33 9.25777ZM13.6348 11.3741C13.6348 11.6591 13.4035 11.8903 13.1186 11.8903H12.7758C12.4909 11.8903 12.2596 11.6591 12.2596 11.3741V11.0314C12.2596 10.8662 12.336 10.7196 12.4578 10.6267C12.5466 10.5585 12.6561 10.5152 12.7758 10.5152H12.8625H13.1186C13.4035 10.5152 13.6348 10.7464 13.6348 11.0314V11.3741Z" fill="#000"/>
</svg>
