<svg width="56" height="55" viewBox="0 0 56 55" fill="none" xmlns="http://www.w3.org/2000/svg">
<circle cx="28.0066" cy="27.5" r="27.5" fill="#006B5F"/>
<path d="M22.7588 19.9087L31.5291 17.5148L31.0647 16.576C30.7608 15.9657 30.0196 15.7137 29.4094 16.0176L21.5581 19.9087H22.7588Z" fill="white"/>
<path d="M34.2517 17.584C34.143 17.584 34.0343 17.5988 33.9256 17.6285L31.8652 18.1917L25.5728 19.9087H32.715H35.8279L35.4425 18.4956C35.2943 17.9447 34.7952 17.584 34.2517 17.584Z" fill="white"/>
<path d="M37.115 20.7734H36.8334H36.4505H36.0675H33.1449H22.4055H20.9974H19.8115H19.5916H18.8554C18.4651 20.7734 18.1167 20.9538 17.8894 21.2379C17.7857 21.3688 17.7066 21.5195 17.6621 21.6851C17.635 21.7888 17.6177 21.8975 17.6177 22.0087V22.1569V23.5651V35.772C17.6177 36.4539 18.1711 37.0072 18.8529 37.0072H37.1126C37.7945 37.0072 38.3478 36.4539 38.3478 35.772V32.3256H31.0178C29.8591 32.3256 28.9178 31.3843 28.9178 30.2257V29.0942V28.7112V28.3283V27.4784C28.9178 26.9102 29.1451 26.3939 29.5132 26.0159C29.8393 25.6799 30.2766 25.4526 30.7658 25.3958C30.8473 25.3859 30.9313 25.381 31.0153 25.381H37.3201H37.703H38.086H38.3478V22.0087C38.3503 21.3268 37.7969 20.7734 37.115 20.7734Z" fill="white"/>
<path d="M39.2149 26.5619C39.0914 26.4483 38.9456 26.3618 38.7826 26.305C38.6566 26.263 38.5232 26.2383 38.3824 26.2383H38.3502H38.3255H37.9426H36.5616H31.0177C30.3358 26.2383 29.7825 26.7917 29.7825 27.4735V28.0887V28.4716V28.8545V30.2232C29.7825 30.9051 30.3358 31.4585 31.0177 31.4585H38.3502H38.3824C38.5232 31.4585 38.6566 31.4338 38.7826 31.3918C38.9456 31.3374 39.0914 31.2485 39.2149 31.1348C39.462 30.91 39.6176 30.5839 39.6176 30.2232V27.4735C39.6176 27.1128 39.462 26.7867 39.2149 26.5619ZM33.597 29.0942C33.597 29.4351 33.3203 29.7118 32.9793 29.7118H32.5692C32.2283 29.7118 31.9516 29.4351 31.9516 29.0942V28.6841C31.9516 28.4864 32.043 28.311 32.1888 28.1998C32.295 28.1183 32.426 28.0664 32.5692 28.0664H32.673H32.9793C33.3203 28.0664 33.597 28.3431 33.597 28.6841V29.0942Z" fill="white"/>
</svg>