<svg width="25" height="24" viewBox="0 0 25 24" fill="none" xmlns="http://www.w3.org/2000/svg">
<path d="M5.84225 4.56821L15.8086 1.84783L15.2808 0.78101C14.9354 0.0875795 14.0932 -0.198776 13.3998 0.146535L4.47784 4.56821H5.84225Z" fill="#000"/>
<path d="M18.9022 1.92578C18.7787 1.92578 18.6552 1.94263 18.5317 1.97631L16.1903 2.6164L9.03979 4.56755H17.156H20.6934L20.2554 2.96172C20.087 2.33566 19.5199 1.92578 18.9022 1.92578Z" fill="#000"/>
<path d="M22.1561 5.5498H21.836H21.4009H20.9657H17.6446H5.44076H3.84054H2.49298H2.24312H1.40651C0.962942 5.5498 0.567097 5.75475 0.308815 6.0776C0.190904 6.22639 0.101067 6.39764 0.0505334 6.58574C0.0196519 6.70365 0 6.82718 0 6.95351V7.12195V8.72218V22.5936C0 23.3685 0.62886 23.9973 1.40371 23.9973H22.1533C22.9282 23.9973 23.557 23.3685 23.557 22.5936V18.6773H15.2274C13.9107 18.6773 12.8411 17.6076 12.8411 16.291V15.0052V14.57V14.1349V13.1691C12.8411 12.5234 13.0994 11.9367 13.5177 11.5072C13.8883 11.1253 14.3852 10.867 14.941 10.8025C15.0337 10.7913 15.1291 10.7856 15.2246 10.7856H22.3891H22.8243H23.2594H23.557V6.95351C23.5598 6.17866 22.9309 5.5498 22.1561 5.5498Z" fill="#000"/>
<path d="M24.5423 12.1285C24.4019 11.9993 24.2363 11.9011 24.051 11.8365C23.9078 11.7888 23.7562 11.7607 23.5962 11.7607H23.5597H23.5316H23.0965H21.5271H15.2273C14.4524 11.7607 13.8236 12.3896 13.8236 13.1644V13.8635V14.2986V14.7338V16.2891C13.8236 17.0639 14.4524 17.6928 15.2273 17.6928H23.5597H23.5962C23.7562 17.6928 23.9078 17.6647 24.051 17.617C24.2363 17.5552 24.4019 17.4541 24.5423 17.325C24.823 17.0695 24.9999 16.6989 24.9999 16.2891V13.1644C24.9999 12.7545 24.823 12.3839 24.5423 12.1285ZM18.1583 15.0061C18.1583 15.3935 17.8438 15.7079 17.4564 15.7079H16.9904C16.6029 15.7079 16.2885 15.3935 16.2885 15.0061V14.5401C16.2885 14.3155 16.3924 14.1161 16.558 13.9898C16.6787 13.8971 16.8276 13.8382 16.9904 13.8382H17.1083H17.4564C17.8438 13.8382 18.1583 14.1526 18.1583 14.5401V15.0061Z" fill="#000"/>
</svg>
