<svg width="25" height="25" viewBox="0 0 25 25" fill="none" xmlns="http://www.w3.org/2000/svg">
<path d="M24.5672 15.2396L22.2075 13.4427C22.2374 13.1656 22.2631 12.8417 22.2631 12.499C22.2631 12.1562 22.2385 11.8323 22.2075 11.5552L24.5694 9.75732C25.008 9.41982 25.1278 8.82085 24.8486 8.32192L22.3947 4.1875C22.1326 3.72085 21.5581 3.48125 20.9752 3.69062L18.1907 4.77915C17.6569 4.40415 17.0975 4.0875 16.5188 3.83437L16.0952 0.95835C16.0256 0.4125 15.5378 0 14.9613 0H10.0407C9.46407 0 8.97739 0.4125 8.90889 0.95L8.48424 3.83647C7.9237 4.08232 7.37283 4.39482 6.8155 4.78125L4.02357 3.6896C3.50043 3.49272 2.87465 3.71353 2.61471 4.17812L0.157634 8.31772C-0.132239 8.79482 -0.0124488 9.4146 0.435775 9.76045L2.79553 11.5573C2.75807 11.9083 2.73992 12.2136 2.73992 12.5C2.73992 12.7865 2.75812 13.0917 2.79553 13.4438L0.433618 15.2417C-0.00497754 15.5802 -0.123715 16.1792 0.155478 16.6771L2.6094 20.8115C2.87149 21.2771 3.44056 21.5187 4.02888 21.3083L6.81334 20.2198C7.34605 20.5938 7.90549 20.9104 8.48424 21.1646L8.90784 24.0396C8.97734 24.5875 9.46407 25 10.0417 25H14.9623C15.5389 25 16.0267 24.5875 16.0952 24.05L16.5198 21.1646C17.0804 20.9177 17.6302 20.6062 18.1886 20.2188L20.9805 21.3104C21.1153 21.3614 21.2554 21.3875 21.3998 21.3875C21.8149 21.3875 22.1967 21.1667 22.3893 20.8229L24.8539 16.6667C25.1278 16.1792 25.0079 15.5802 24.5672 15.2396ZM12.5009 16.6667C10.1412 16.6667 8.22214 14.7979 8.22214 12.5C8.22214 10.2021 10.1412 8.33335 12.5009 8.33335C14.8607 8.33335 16.7798 10.2021 16.7798 12.5C16.7798 14.7979 14.8607 16.6667 12.5009 16.6667Z" fill="#000"/>
</svg>