<svg width="22" height="23" viewBox="0 0 22 23" fill="none" xmlns="http://www.w3.org/2000/svg">
<path d="M10.9518 2.33254C12.1671 2.33652 13.3695 2.58149 14.4895 3.05325C15.6095 3.52502 16.6247 4.21421 17.4766 5.08096H14.6164C14.3734 5.08096 14.1404 5.17748 13.9686 5.34929C13.7968 5.5211 13.7003 5.75412 13.7003 5.9971C13.7003 6.24008 13.7968 6.4731 13.9686 6.64491C14.1404 6.81672 14.3734 6.91324 14.6164 6.91324H18.412C18.8631 6.913 19.2957 6.73368 19.6147 6.41468C19.9337 6.09568 20.113 5.6631 20.1132 5.21197V1.41639C20.1132 1.17342 20.0167 0.940394 19.8449 0.768584C19.6731 0.596775 19.4401 0.500253 19.1971 0.500253C18.9541 0.500253 18.7211 0.596775 18.5493 0.768584C18.3775 0.940394 18.281 1.17342 18.281 1.41639V3.32014C16.7667 1.95642 14.9028 1.04115 12.8978 0.676838C10.8928 0.312525 8.82604 0.513548 6.92886 1.2574C5.03168 2.00124 3.37902 3.25854 2.15597 4.8885C0.932917 6.51846 0.187759 8.4567 0.00394313 10.4862C-0.00789032 10.6138 0.00698085 10.7424 0.0476091 10.8639C0.0882374 10.9854 0.153732 11.0972 0.23992 11.192C0.326107 11.2868 0.431098 11.3626 0.548203 11.4146C0.665307 11.4666 0.791958 11.4936 0.920085 11.4939C1.14416 11.4968 1.36124 11.4159 1.52882 11.2672C1.69641 11.1184 1.80243 10.9124 1.82615 10.6896C2.03009 8.40907 3.07941 6.28724 4.76795 4.74092C6.4565 3.1946 8.66223 2.33555 10.9518 2.33254Z" fill="#000"/>
<path d="M20.9844 11.4941C20.7603 11.4912 20.5432 11.5721 20.3756 11.7209C20.208 11.8697 20.102 12.0756 20.0783 12.2985C19.9269 14.0421 19.2784 15.7057 18.21 17.0919C17.1415 18.4781 15.6978 19.5287 14.0502 20.1192C12.4026 20.7096 10.6202 20.815 8.91452 20.4229C7.20881 20.0308 5.65136 19.1577 4.42694 17.9071H7.28713C7.53011 17.9071 7.76313 17.8106 7.93494 17.6387C8.10675 17.4669 8.20327 17.2339 8.20327 16.9909C8.20327 16.748 8.10675 16.5149 7.93494 16.3431C7.76313 16.1713 7.53011 16.0748 7.28713 16.0748H3.49156C3.26811 16.0747 3.04683 16.1186 2.84037 16.2041C2.6339 16.2895 2.44631 16.4148 2.28831 16.5728C2.1303 16.7308 2.00499 16.9184 1.91954 17.1249C1.83409 17.3313 1.79016 17.5526 1.79028 17.7761V21.5716C1.79028 21.8146 1.88681 22.0476 2.05861 22.2195C2.23042 22.3913 2.46345 22.4878 2.70642 22.4878C2.9494 22.4878 3.18242 22.3913 3.35423 22.2195C3.52604 22.0476 3.62257 21.8146 3.62257 21.5716V19.6679C5.13679 21.0316 7.00076 21.9469 9.00572 22.3112C11.0107 22.6755 13.0775 22.4745 14.9747 21.7306C16.8719 20.9868 18.5245 19.7295 19.7476 18.0995C20.9706 16.4696 21.7158 14.5313 21.8996 12.5018C21.9114 12.3743 21.8965 12.2456 21.8559 12.1241C21.8153 12.0026 21.7498 11.8909 21.6636 11.7961C21.5774 11.7013 21.4724 11.6254 21.3553 11.5735C21.2382 11.5215 21.1125 11.4944 20.9844 11.4941Z" fill="#000"/>
</svg>