<svg width="31" height="31" viewBox="0 0 31 31" fill="none" xmlns="http://www.w3.org/2000/svg">
<path d="M18.2576 0H5.18028C3.80741 0 2.49077 0.545292 1.52 1.51592C0.549231 2.48655 0.00385989 3.803 0.00385989 5.17567V18.251C-0.00128663 18.2688 -0.00128663 18.2877 0.00385989 18.3055C0.0182123 19.6687 0.569913 20.9712 1.53913 21.9301C2.50835 22.889 3.8168 23.4268 5.18028 23.4267H18.2576C19.6154 23.424 20.9179 22.8879 21.8841 21.934C22.8504 20.9802 23.4031 19.6848 23.4231 18.3273V5.17567C23.4231 3.80488 22.8792 2.49008 21.9108 1.51977C20.9424 0.549452 19.6285 0.00288587 18.2576 0ZM21.7993 16.0718L17.2441 10.8635C16.9546 10.5554 16.6052 10.3099 16.2172 10.142C15.8292 9.97419 15.411 9.8876 14.9882 9.8876C14.5655 9.8876 14.1473 9.97419 13.7593 10.142C13.3713 10.3099 13.0218 10.5554 12.7324 10.8635L9.60476 14.4374L8.58037 13.1952C8.29809 12.8567 7.94483 12.5843 7.54559 12.3973C7.14635 12.2104 6.7109 12.1135 6.27005 12.1135C5.82921 12.1135 5.39375 12.2104 4.99451 12.3973C4.59528 12.5843 4.24201 12.8567 3.95974 13.1952L1.63852 15.9955V5.17567C1.64139 4.23736 2.01547 3.3383 2.67905 2.6748C3.34264 2.01131 4.24183 1.6373 5.18028 1.63442H18.2576C19.196 1.6373 20.0952 2.01131 20.7588 2.6748C21.4224 3.3383 21.7964 4.23736 21.7993 5.17567V16.0718Z" fill="white"/>
<path d="M6.27012 8.44414C7.47385 8.44414 8.44967 7.46846 8.44967 6.26491C8.44967 5.06135 7.47385 4.08568 6.27012 4.08568C5.06639 4.08568 4.09058 5.06135 4.09058 6.26491C4.09058 7.46846 5.06639 8.44414 6.27012 8.44414Z" fill="white"/>
<g filter="url(#filter0_d_1_1860)">
<path d="M23.5601 16.12C22.0886 16.12 20.6502 16.5563 19.4267 17.3739C18.2032 18.1914 17.2496 19.3534 16.6865 20.7128C16.1233 22.0723 15.976 23.5683 16.2631 25.0115C16.5502 26.4547 17.2587 27.7804 18.2993 28.8209C19.3398 29.8614 20.6654 30.57 22.1087 30.8571C23.5519 31.1441 25.0478 30.9968 26.4073 30.4337C27.7668 29.8706 28.9288 28.917 29.7463 27.6935C30.5638 26.47 31.0002 25.0315 31.0002 23.56C30.9983 21.5874 30.2138 19.6961 28.8189 18.3012C27.4241 16.9064 25.5328 16.1219 23.5601 16.12V16.12ZM26.4217 24.1323H24.1324V26.4216C24.1324 26.5733 24.0721 26.7189 23.9648 26.8262C23.8575 26.9336 23.7119 26.9939 23.5601 26.9939C23.4083 26.9939 23.2628 26.9336 23.1555 26.8262C23.0481 26.7189 22.9878 26.5733 22.9878 26.4216V24.1323H20.6986C20.5468 24.1323 20.4012 24.072 20.2939 23.9647C20.1866 23.8574 20.1263 23.7118 20.1263 23.56C20.1263 23.4082 20.1866 23.2627 20.2939 23.1553C20.4012 23.048 20.5468 22.9877 20.6986 22.9877H22.9878V20.6985C22.9878 20.5467 23.0481 20.4011 23.1555 20.2938C23.2628 20.1865 23.4083 20.1262 23.5601 20.1262C23.7119 20.1262 23.8575 20.1865 23.9648 20.2938C24.0721 20.4011 24.1324 20.5467 24.1324 20.6985V22.9877H26.4217C26.5735 22.9877 26.719 23.048 26.8264 23.1553C26.9337 23.2627 26.994 23.4082 26.994 23.56C26.994 23.7118 26.9337 23.8574 26.8264 23.9647C26.719 24.072 26.5735 24.1323 26.4217 24.1323Z" fill="white"/>
</g>
<defs>
<filter id="filter0_d_1_1860" x="15.1201" y="15.12" width="15.8801" height="15.88" filterUnits="userSpaceOnUse" color-interpolation-filters="sRGB">
<feFlood flood-opacity="0" result="BackgroundImageFix"/>
<feColorMatrix in="SourceAlpha" type="matrix" values="0 0 0 0 0 0 0 0 0 0 0 0 0 0 0 0 0 0 127 0" result="hardAlpha"/>
<feOffset dx="-1" dy="-1"/>
<feComposite in2="hardAlpha" operator="out"/>
<feColorMatrix type="matrix" values="0 0 0 0 0 0 0 0 0 0 0 0 0 0 0 0 0 0 0.25 0"/>
<feBlend mode="normal" in2="BackgroundImageFix" result="effect1_dropShadow_1_1860"/>
<feBlend mode="normal" in="SourceGraphic" in2="effect1_dropShadow_1_1860" result="shape"/>
</filter>
</defs>
</svg>