<svg width="24" height="18" viewBox="0 0 24 18" fill="none" xmlns="http://www.w3.org/2000/svg">
<path d="M22.8636 7.88882H3.87934L9.89417 1.9342C10.0027 1.83042 10.0893 1.70628 10.1488 1.56903C10.2084 1.43177 10.2397 1.28415 10.2411 1.13478C10.2424 0.985399 10.2136 0.837259 10.1565 0.699001C10.0993 0.560742 10.015 0.435134 9.90826 0.329505C9.80156 0.223875 9.67468 0.140341 9.53503 0.0837746C9.39537 0.0272086 9.24573 -0.00125557 9.09484 4.24767e-05C8.94396 0.00134052 8.79484 0.0323751 8.6562 0.0913352C8.51756 0.150295 8.39217 0.236 8.28734 0.343449L0.332715 8.21845C0.119678 8.42942 0 8.71552 0 9.01382C0 9.31213 0.119678 9.59823 0.332715 9.8092L8.28734 17.6842C8.50166 17.8891 8.78871 18.0025 9.08667 18C9.38462 17.9974 9.66964 17.8791 9.88033 17.6705C10.091 17.4619 10.2105 17.1797 10.2131 16.8848C10.2157 16.5898 10.1012 16.3056 9.89417 16.0934L3.87934 10.1388H22.8636C23.165 10.1388 23.4541 10.0203 23.6672 9.80932C23.8803 9.59834 24 9.31219 24 9.01382C24 8.71546 23.8803 8.42931 23.6672 8.21833C23.4541 8.00735 23.165 7.88882 22.8636 7.88882Z" fill="#000"/>
</svg>