<svg width="21" height="22" viewBox="0 0 21 22" fill="none" xmlns="http://www.w3.org/2000/svg">
<path d="M18.7525 14.9857C17.4518 13.8732 16.1318 13.1994 14.8471 14.3102L14.08 14.9815C13.5187 15.4688 12.4751 17.7459 8.44032 13.1044C4.40635 8.46885 6.8069 7.74709 7.36902 7.26395L8.14035 6.59176C9.41835 5.47845 8.93605 4.07694 8.01432 2.63426L7.45808 1.76041C6.53214 0.321092 5.52386 -0.624172 4.2425 0.487458L3.55015 1.09243C2.98383 1.50498 1.40083 2.846 1.01684 5.39359C0.554712 8.45036 2.01252 11.9508 5.35245 15.7915C8.68818 19.6339 11.9542 21.5639 15.0479 21.5303C17.619 21.5026 19.1718 20.1229 19.6574 19.6213L20.3523 19.0155C21.6303 17.9047 20.8363 16.7737 19.5348 15.6587L18.7525 14.9857Z" fill="#000"/>
</svg>