<svg width="50" height="50" viewBox="0 0 50 50" fill="none" xmlns="http://www.w3.org/2000/svg">
<circle cx="25" cy="25" r="25" fill="#02AEAE"/>
<path d="M28.5319 26.225C28.5319 28.4483 26.7233 30.2569 24.5 30.2569C22.2767 30.2569 20.4688 28.4483 20.4688 26.225C20.4688 24.0017 22.2767 22.1931 24.5 22.1931C26.7233 22.1931 28.5319 24.0024 28.5319 26.225ZM37 20.4999V31.9515C37 33.4781 35.7622 34.7159 34.2356 34.7159H14.7644C13.2378 34.7159 12 33.4781 12 31.9515V20.4999C12 18.9732 13.2378 17.7355 14.7644 17.7355H18.1646V16.779C18.1646 15.4431 19.2469 14.3601 20.5835 14.3601H28.4165C29.7531 14.3601 30.8354 15.4431 30.8354 16.779V17.7348H34.2356C35.7622 17.7355 37 18.9732 37 20.4999ZM30.6052 26.225C30.6052 22.8586 27.8664 20.1198 24.5 20.1198C21.1343 20.1198 18.3955 22.8586 18.3955 26.225C18.3955 29.5914 21.1343 32.3302 24.5 32.3302C27.8664 32.3302 30.6052 29.5914 30.6052 26.225Z" fill="white"/>
</svg>