<svg width="20" height="21" viewBox="0 0 20 21" fill="none" xmlns="http://www.w3.org/2000/svg">
<path fill-rule="evenodd" clip-rule="evenodd" d="M3 0.933105H17C18.6569 0.933105 20 2.2758 20 3.93208V17.9273C20 19.5836 18.6569 20.9263 17 20.9263H3C1.34315 20.9263 0 19.5836 0 17.9273V3.93208C0 2.2758 1.34315 0.933105 3 0.933105ZM8.25 15.5581L15.71 7.62082C16.0485 7.22856 16.0311 6.64281 15.67 6.27128C15.4822 6.08203 15.2266 5.97558 14.96 5.97558C14.6934 5.97558 14.4378 6.08203 14.25 6.27128L7.52 13.4288L5.76 11.5595C5.52305 11.2697 5.14399 11.1364 4.77775 11.2143C4.41151 11.2922 4.11945 11.568 4.02094 11.9291C3.92244 12.2902 4.03399 12.6761 4.31 12.929L6.79 15.5581C6.9802 15.7575 7.24434 15.8697 7.52 15.868C7.79566 15.8697 8.0598 15.7575 8.25 15.5581Z" fill="#02AEAE"/>
</svg>