<svg width="23" height="30" viewBox="0 0 23 30" fill="none" xmlns="http://www.w3.org/2000/svg">
<path d="M15.4129 11.1006C15.0466 11.1006 14.7497 11.3974 14.7497 11.7638V24.2982C14.7497 24.6643 15.0466 24.9614 15.4129 24.9614C15.7792 24.9614 16.0761 24.6643 16.0761 24.2982V11.7638C16.0761 11.3974 15.7792 11.1006 15.4129 11.1006Z" fill="#000"/>
<path d="M7.58717 11.1006C7.22085 11.1006 6.92397 11.3974 6.92397 11.7638V24.2982C6.92397 24.6643 7.22085 24.9614 7.58717 24.9614C7.95348 24.9614 8.25037 24.6643 8.25037 24.2982V11.7638C8.25037 11.3974 7.95348 11.1006 7.58717 11.1006Z" fill="#000"/>
<path d="M1.8836 9.2714V25.6113C1.8836 26.577 2.23774 27.484 2.85638 28.1348C3.47217 28.7874 4.32915 29.1578 5.22602 29.1594H17.774C18.6711 29.1578 19.5281 28.7874 20.1436 28.1348C20.7623 27.484 21.1164 26.577 21.1164 25.6113V9.2714C22.3462 8.94498 23.1431 7.75692 22.9785 6.49502C22.8138 5.23339 21.7389 4.28962 20.4664 4.28937H17.0709V3.46037C17.0748 2.76323 16.7991 2.09381 16.3056 1.60133C15.8121 1.10911 15.1416 0.835025 14.4445 0.840724H8.55549C7.85836 0.835025 7.1879 1.10911 6.69439 1.60133C6.20088 2.09381 5.92523 2.76323 5.92912 3.46037V4.28937H2.53358C1.26107 4.28962 0.186219 5.23339 0.0214549 6.49502C-0.14305 7.75692 0.653827 8.94498 1.8836 9.2714ZM17.774 27.833H5.22602C4.09211 27.833 3.21 26.8589 3.21 25.6113V9.32969H19.79V25.6113C19.79 26.8589 18.9079 27.833 17.774 27.833ZM7.25552 3.46037C7.25111 3.11503 7.38686 2.78266 7.63194 2.53888C7.87675 2.2951 8.2099 2.16117 8.55549 2.16712H14.4445C14.7901 2.16117 15.1233 2.2951 15.3681 2.53888C15.6131 2.7824 15.7489 3.11503 15.7445 3.46037V4.28937H7.25552V3.46037ZM2.53358 5.61577H20.4664C21.1257 5.61577 21.6602 6.15021 21.6602 6.80953C21.6602 7.46884 21.1257 8.00329 20.4664 8.00329H2.53358C1.87427 8.00329 1.33982 7.46884 1.33982 6.80953C1.33982 6.15021 1.87427 5.61577 2.53358 5.61577Z" fill="#000"/>
<path d="M11.5 11.1006C11.1337 11.1006 10.8368 11.3974 10.8368 11.7638V24.2982C10.8368 24.6643 11.1337 24.9614 11.5 24.9614C11.8664 24.9614 12.1632 24.6643 12.1632 24.2982V11.7638C12.1632 11.3974 11.8664 11.1006 11.5 11.1006Z" fill="#000"/>
</svg>