<svg width="30" height="26" viewBox="0 0 30 26" fill="none" xmlns="http://www.w3.org/2000/svg">
<path d="M1.06488 25.9709H1.02697C0.78534 25.9629 0.554832 25.8675 0.378289 25.7023C0.201745 25.5372 0.0911757 25.3135 0.0671319 25.0729C0.0342062 24.7138 -0.802905 16.1112 4.49015 10.2324C7.42553 6.97078 11.641 5.22572 17.0289 5.03615V1.02719C17.0288 0.833827 17.0849 0.644611 17.1904 0.482553C17.2959 0.320495 17.4462 0.192578 17.623 0.11436C17.7999 0.036142 17.9956 0.0109932 18.1865 0.041972C18.3773 0.0729508 18.5551 0.158722 18.6981 0.288855L29.6733 10.2663C29.7762 10.3599 29.8584 10.4739 29.9147 10.601C29.9709 10.7281 30 10.8656 30 11.0047C30 11.1437 29.9709 11.2812 29.9147 11.4084C29.8584 11.5355 29.7762 11.6495 29.6733 11.743L18.6981 21.7205C18.5551 21.8506 18.3773 21.9364 18.1865 21.9674C17.9956 21.9984 17.7999 21.9732 17.623 21.895C17.4462 21.8168 17.2959 21.6889 17.1904 21.5268C17.0849 21.3648 17.0288 21.1755 17.0289 20.9822V16.8984C13.9199 16.6719 3.60615 16.5771 2.04667 25.1518C2.00484 25.3817 1.88365 25.5896 1.70423 25.7393C1.52482 25.889 1.29855 25.971 1.06488 25.9709ZM19.0244 3.2831V6.01594C19.0244 6.28056 18.9192 6.53434 18.7321 6.72145C18.545 6.90857 18.2912 7.01369 18.0266 7.01369C12.7485 7.01369 8.69367 8.54523 5.97281 11.5674C3.99345 13.9048 2.72058 16.7575 2.30309 19.7919C7.26689 13.6457 18.0266 14.9847 18.1583 15.0027C18.3983 15.0346 18.6185 15.1527 18.7778 15.335C18.9372 15.5173 19.0248 15.7513 19.0244 15.9934V18.7263L27.5182 11.0047L19.0244 3.2831Z" fill="#000"/>
</svg>
