<svg width="28" height="28" viewBox="0 0 28 28" fill="none" xmlns="http://www.w3.org/2000/svg">
<path d="M21.8217 0H6.19156C4.55068 0 2.977 0.651742 1.81673 1.81185C0.65645 2.97196 0.0046134 4.5454 0.0046134 6.18605V21.814C-0.0015378 21.8352 -0.0015378 21.8578 0.0046134 21.8791C0.0217677 23.5084 0.68117 25.0652 1.83959 26.2112C2.99802 27.3573 4.5619 28.0001 6.19156 28H21.8217C23.4447 27.9968 25.0014 27.356 26.1563 26.2159C27.3111 25.0758 27.9717 23.5277 27.9957 21.9051V6.18605C27.9957 4.54766 27.3456 2.97618 26.1881 1.81645C25.0307 0.656714 23.4604 0.00344924 21.8217 0ZM26.0549 19.2093L20.6104 12.9842C20.2645 12.616 19.8468 12.3225 19.3831 12.1219C18.9193 11.9213 18.4194 11.8178 17.9142 11.8178C17.4089 11.8178 16.909 11.9213 16.4453 12.1219C15.9816 12.3225 15.5639 12.616 15.218 12.9842L11.4798 17.2558L10.2554 15.7712C9.91802 15.3665 9.4958 15.0409 9.01862 14.8175C8.54144 14.5941 8.02098 14.4783 7.49407 14.4783C6.96717 14.4783 6.44671 14.5941 5.96953 14.8175C5.49235 15.0409 5.07012 15.3665 4.73274 15.7712L1.95839 19.1181V6.18605C1.96182 5.06456 2.40892 3.98999 3.20205 3.19697C3.99518 2.40396 5.06991 1.95692 6.19156 1.95349H21.8217C22.9434 1.95692 24.0181 2.40396 24.8112 3.19697C25.6044 3.98999 26.0515 5.06456 26.0549 6.18605V19.2093Z" fill="white"/>
<path d="M7.49443 10.0925C8.93315 10.0925 10.0995 8.9264 10.0995 7.48789C10.0995 6.04938 8.93315 4.88324 7.49443 4.88324C6.05572 4.88324 4.8894 6.04938 4.8894 7.48789C4.8894 8.9264 6.05572 10.0925 7.49443 10.0925Z" fill="white"/>
</svg>
