<svg width="23" height="20" viewBox="0 0 23 20" fill="none" xmlns="http://www.w3.org/2000/svg">
<path d="M16.5342 0C15.6641 0.0010119 14.8034 0.180271 14.0053 0.526721C13.2072 0.87317 12.4885 1.37946 11.8936 2.01437C11.0217 1.08388 9.89027 0.436967 8.64613 0.157617C7.40198 -0.121734 6.10259 -0.0206203 4.91663 0.447832C3.73068 0.916284 2.71294 1.73044 1.99553 2.7846C1.27812 3.83877 0.894182 5.08425 0.893555 6.35938C0.893555 12.6912 11.1064 18.9062 11.5498 19.1503C11.6567 19.2146 11.7791 19.2485 11.9039 19.2485C12.0286 19.2485 12.151 19.2146 12.2579 19.1503C12.6807 18.9062 22.8936 12.6912 22.8936 6.35938C22.8917 4.67332 22.2211 3.05685 21.0289 1.86463C19.8367 0.672408 18.2202 0.00181981 16.5342 0ZM11.8936 17.7512C10.1164 16.6169 2.26855 11.3162 2.26855 6.35938C2.26944 5.30061 2.60744 4.26962 3.23358 3.41584C3.85972 2.56206 4.74147 1.92984 5.75103 1.61081C6.76059 1.29178 7.84551 1.30252 8.84856 1.64146C9.85161 1.9804 10.7207 2.62994 11.3298 3.49594C11.3933 3.58602 11.4774 3.65952 11.5753 3.71026C11.6731 3.761 11.7816 3.78749 11.8918 3.78749C12.002 3.78749 12.1106 3.761 12.2084 3.71026C12.3062 3.65952 12.3904 3.58602 12.4539 3.49594C13.0625 2.62845 13.9317 1.97751 14.9355 1.63761C15.9392 1.29772 17.0251 1.28656 18.0356 1.60576C19.046 1.92496 19.9285 2.5579 20.5548 3.4127C21.1811 4.26751 21.5187 5.29968 21.5186 6.35938C21.5186 11.3128 13.6707 16.6134 11.8936 17.7512Z" fill="#000"/>
</svg>