<svg width="14" height="18" viewBox="0 0 14 18" fill="none" xmlns="http://www.w3.org/2000/svg">
<path d="M3.28821 8.92V3.87467C3.28821 2.87109 3.68911 1.90861 4.40271 1.19898C5.11631 0.489338 6.08416 0.0906677 7.09335 0.0906677C8.10253 0.0906677 9.07039 0.489338 9.78399 1.19898C10.4976 1.90861 10.8985 2.87109 10.8985 3.87467V8.92C10.8985 9.92358 10.4976 10.8861 9.78399 11.5957C9.07039 12.3053 8.10253 12.704 7.09335 12.704C6.08416 12.704 5.11631 12.3053 4.40271 11.5957C3.68911 10.8861 3.28821 9.92358 3.28821 8.92ZM12.8328 8.92789C12.6669 8.91011 12.5006 8.95806 12.37 9.06136C12.2394 9.16466 12.1551 9.31497 12.1352 9.47972C11.9959 10.7126 11.4048 11.8511 10.4747 12.678C9.54465 13.5048 8.34086 13.9618 7.09335 13.9618C5.84583 13.9618 4.64205 13.5048 3.71199 12.678C2.78193 11.8511 2.1908 10.7126 2.05154 9.47972C2.03164 9.31497 1.94726 9.16466 1.81667 9.06136C1.68609 8.95806 1.51983 8.91011 1.35393 8.92789C1.27078 8.93571 1.19004 8.96 1.11647 8.99932C1.0429 9.03864 0.977986 9.09219 0.925541 9.15684C0.873096 9.22148 0.834183 9.2959 0.811092 9.37572C0.788001 9.45554 0.781199 9.53914 0.791085 9.62162C0.953281 11.0525 1.60481 12.3846 2.63662 13.3949C3.66844 14.4052 5.01791 15.0324 6.45916 15.1715V17.1187C6.45916 17.2859 6.52597 17.4463 6.64491 17.5646C6.76384 17.6829 6.92515 17.7493 7.09335 17.7493C7.26155 17.7493 7.42286 17.6829 7.54179 17.5646C7.66072 17.4463 7.72754 17.2859 7.72754 17.1187V15.1715C9.16879 15.0324 10.5183 14.4052 11.5501 13.3949C12.5819 12.3846 13.2334 11.0525 13.3956 9.62162C13.4055 9.53914 13.3987 9.45554 13.3756 9.37572C13.3525 9.2959 13.3136 9.22148 13.2612 9.15684C13.2087 9.09219 13.1438 9.03864 13.0702 8.99932C12.9967 8.96 12.9159 8.93571 12.8328 8.92789Z" fill="#000"/>
</svg>
