<svg width="21" height="20" viewBox="0 0 21 20" fill="none" xmlns="http://www.w3.org/2000/svg">
<path d="M15.7588 0.717983C15.7588 0.4466 15.6016 0.1895 15.3587 0.075233C15.1016 -0.0533171 14.8159 -0.010467 14.6016 0.160933L8.27277 5.20295L15.7588 12.6874V0.717983Z" fill="white"/>
<path d="M19.836 18.7807L1.26395 0.212342C0.985374 -0.0661828 0.5325 -0.0661828 0.253919 0.212342C-0.0246624 0.490867 -0.0246624 0.943649 0.253919 1.22217L4.74836 5.71714H4.32978C3.88691 5.71714 3.50118 5.91711 3.24403 6.23134C3.02973 6.47416 2.90116 6.80268 2.90116 7.14548V12.8588C2.90116 13.6444 3.54404 14.2871 4.32978 14.2871H7.64418L14.6016 19.8434C14.7301 19.9433 14.8873 20.0005 15.0444 20.0005C15.1444 20.0005 15.2587 19.9719 15.3587 19.9291C15.6016 19.8148 15.7588 19.5577 15.7588 19.2863V16.7253L18.8246 19.7905C18.9646 19.9305 19.1474 20.0005 19.3303 20.0005C19.5132 20.0005 19.696 19.9305 19.836 19.7919C20.1146 19.512 20.1146 19.0606 19.836 18.7807Z" fill="white"/>
</svg>