<svg width="318" height="18" viewBox="0 0 318 18" fill="none" xmlns="http://www.w3.org/2000/svg">
<line y1="9.5" x2="318" y2="9.5" stroke="#DFE2E4"/>
<rect x="151" y="2" width="18" height="16" fill="#000"/>
<path d="M153.533 9.38379V9.22656C153.533 8.69336 153.611 8.19889 153.766 7.74316C153.921 7.28288 154.144 6.88411 154.436 6.54688C154.732 6.20508 155.092 5.94076 155.516 5.75391C155.944 5.5625 156.427 5.4668 156.965 5.4668C157.507 5.4668 157.99 5.5625 158.414 5.75391C158.842 5.94076 159.205 6.20508 159.501 6.54688C159.797 6.88411 160.023 7.28288 160.178 7.74316C160.333 8.19889 160.41 8.69336 160.41 9.22656V9.38379C160.41 9.91699 160.333 10.4115 160.178 10.8672C160.023 11.3229 159.797 11.7217 159.501 12.0635C159.205 12.4007 158.845 12.665 158.421 12.8564C157.997 13.0433 157.516 13.1367 156.979 13.1367C156.436 13.1367 155.951 13.0433 155.522 12.8564C155.099 12.665 154.739 12.4007 154.442 12.0635C154.146 11.7217 153.921 11.3229 153.766 10.8672C153.611 10.4115 153.533 9.91699 153.533 9.38379ZM155.181 9.22656V9.38379C155.181 9.71647 155.215 10.0309 155.283 10.3271C155.352 10.6234 155.459 10.8831 155.604 11.1064C155.75 11.3298 155.937 11.5052 156.165 11.6328C156.393 11.7604 156.664 11.8242 156.979 11.8242C157.284 11.8242 157.548 11.7604 157.771 11.6328C157.999 11.5052 158.186 11.3298 158.332 11.1064C158.478 10.8831 158.585 10.6234 158.653 10.3271C158.726 10.0309 158.763 9.71647 158.763 9.38379V9.22656C158.763 8.89844 158.726 8.58854 158.653 8.29688C158.585 8.00065 158.476 7.73861 158.325 7.51074C158.179 7.28288 157.993 7.10514 157.765 6.97754C157.541 6.84538 157.275 6.7793 156.965 6.7793C156.655 6.7793 156.386 6.84538 156.158 6.97754C155.935 7.10514 155.75 7.28288 155.604 7.51074C155.459 7.73861 155.352 8.00065 155.283 8.29688C155.215 8.58854 155.181 8.89844 155.181 9.22656ZM163.445 7.01172V13H161.798V5.60352H163.37L163.445 7.01172ZM165.708 5.55566L165.694 7.08691C165.594 7.06868 165.485 7.05501 165.366 7.0459C165.252 7.03678 165.138 7.03223 165.024 7.03223C164.742 7.03223 164.493 7.07324 164.279 7.15527C164.065 7.23275 163.885 7.34668 163.739 7.49707C163.598 7.6429 163.489 7.82064 163.411 8.03027C163.334 8.23991 163.288 8.47461 163.274 8.73438L162.898 8.76172C162.898 8.29688 162.944 7.86621 163.035 7.46973C163.126 7.07324 163.263 6.72461 163.445 6.42383C163.632 6.12305 163.865 5.88835 164.143 5.71973C164.425 5.55111 164.751 5.4668 165.12 5.4668C165.22 5.4668 165.327 5.47591 165.441 5.49414C165.56 5.51237 165.649 5.53288 165.708 5.55566Z" fill="#000"/>
</svg>
