<svg width="17" height="17" viewBox="0 0 17 17" fill="none" xmlns="http://www.w3.org/2000/svg">
<path fill-rule="evenodd" clip-rule="evenodd" d="M0.634218 13.1955C-0.0337696 14.9647 1.69672 16.6951 3.46589 16.0272L14.4898 11.8649C16.8409 10.9771 16.7093 7.60758 14.296 6.90605L11.2381 6.01713C10.9516 5.93384 10.7275 5.7098 10.6443 5.42327L9.75534 2.36542C9.05381 -0.0478497 5.68425 -0.179535 4.79652 2.17162L0.634218 13.1955ZM4.02244 13.9531L13.8738 10.2335C14.6576 9.93757 14.6136 8.81438 13.8092 8.58054L10.7513 7.69162C10.7165 7.68148 10.6819 7.67064 10.6476 7.65913L4.02244 13.9531ZM9.26442 6.56794C9.13786 6.36584 9.03805 6.14494 8.96977 5.91004L8.08085 2.85219C7.84701 2.04776 6.72382 2.00387 6.42791 2.78759L2.61572 12.8842L9.26442 6.56794Z" fill="white"/>
</svg>