<svg width="30" height="26" viewBox="0 0 30 26" fill="none" xmlns="http://www.w3.org/2000/svg">
<path d="M28.9351 25.9709H28.973C29.2147 25.9629 29.4452 25.8675 29.6217 25.7023C29.7983 25.5372 29.9088 25.3135 29.9329 25.0729C29.9658 24.7138 30.8029 16.1112 25.5098 10.2324C22.5745 6.97078 18.359 5.22572 12.9711 5.03615V1.02719C12.9712 0.833827 12.9151 0.644611 12.8096 0.482553C12.7041 0.320495 12.5538 0.192578 12.377 0.11436C12.2001 0.036142 12.0044 0.0109932 11.8135 0.041972C11.6227 0.0729508 11.4449 0.158722 11.3019 0.288855L0.326654 10.2663C0.223768 10.3599 0.141563 10.4739 0.08531 10.601C0.0290565 10.7281 0 10.8656 0 11.0047C0 11.1437 0.0290565 11.2812 0.08531 11.4084C0.141563 11.5355 0.223768 11.6495 0.326654 11.743L11.3019 21.7205C11.4449 21.8506 11.6227 21.9364 11.8135 21.9674C12.0044 21.9984 12.2001 21.9732 12.377 21.895C12.5538 21.8168 12.7041 21.6889 12.8096 21.5268C12.9151 21.3648 12.9712 21.1755 12.9711 20.9822V16.8984C16.0801 16.6719 26.3939 16.5771 27.9533 25.1518C27.9952 25.3817 28.1163 25.5896 28.2958 25.7393C28.4752 25.889 28.7015 25.971 28.9351 25.9709ZM10.9756 3.2831V6.01594C10.9756 6.28056 11.0808 6.53434 11.2679 6.72145C11.455 6.90857 11.7088 7.01369 11.9734 7.01369C17.2515 7.01369 21.3063 8.54523 24.0272 11.5674C26.0065 13.9048 27.2794 16.7575 27.6969 19.7919C22.7331 13.6457 11.9734 14.9847 11.8417 15.0027C11.6017 15.0346 11.3815 15.1527 11.2222 15.335C11.0628 15.5173 10.9752 15.7513 10.9756 15.9934V18.7263L2.48179 11.0047L10.9756 3.2831Z" fill="#000"/>
</svg>
