<svg width="25" height="24" viewBox="0 0 25 24" fill="none" xmlns="http://www.w3.org/2000/svg">
<path fill-rule="evenodd" clip-rule="evenodd" d="M21.0772 6.42042C21.8433 4.39132 19.8586 2.4066 17.8295 3.17272L5.18602 7.94653C2.48944 8.96468 2.64045 12.8293 5.40828 13.6339L8.91543 14.6534C9.24405 14.7489 9.501 15.0059 9.59653 15.3345L10.616 18.8416C11.4206 21.6094 15.2852 21.7605 16.3034 19.0639L21.0772 6.42042ZM17.1912 5.55155L5.89248 9.8176C4.99361 10.157 5.04396 11.4452 5.96656 11.7134L9.47371 12.7329C9.51372 12.7445 9.55337 12.757 9.59265 12.7702L17.1912 5.55155ZM11.1791 14.0217C11.3242 14.2535 11.4387 14.5068 11.517 14.7762L12.5365 18.2833C12.8047 19.2059 14.0929 19.2563 14.4323 18.3574L18.8046 6.77744L11.1791 14.0217Z" fill="white"/>
</svg>