<svg width="23" height="20" viewBox="0 0 23 20" fill="none" xmlns="http://www.w3.org/2000/svg">
<path d="M0.933529 19.0666C0.877612 19.0666 0.821145 19.0602 0.765229 19.0473C0.434312 18.9685 0.200195 18.6733 0.200195 18.3332C0.200195 11.6694 1.04316 6.12727 11.2002 5.87519V0.733238C11.2002 0.441738 11.3727 0.178288 11.6393 0.0615051C11.9049 -0.0545449 12.2164 -0.00431171 12.4313 0.194788L21.9646 8.99479C22.1149 9.13284 22.2002 9.32845 22.2002 9.53324C22.2002 9.73802 22.1149 9.93364 21.9646 10.0719L12.4313 18.8719C12.2171 19.071 11.9057 19.1225 11.6393 19.0052C11.3727 18.8882 11.2002 18.6247 11.2002 18.3332V13.2085C4.2328 13.3754 2.94726 15.9457 1.5895 18.6612C1.46355 18.914 1.20633 19.0666 0.933529 19.0666ZM11.9335 11.7332C12.3389 11.7332 12.6669 12.0612 12.6669 12.4666V16.6581L20.3856 9.53324L12.6669 2.40835V6.5999C12.6669 7.00525 12.3389 7.33324 11.9335 7.33324C3.8324 7.33324 2.08798 10.4664 1.74496 15.4709C3.26388 13.4305 5.85273 11.7332 11.9335 11.7332Z" fill="#000"/>
</svg>
