<svg width="29" height="29" viewBox="0 0 29 29" fill="none" xmlns="http://www.w3.org/2000/svg">
<path d="M16.2638 4.67811L18.2819 8.71437C18.5571 9.27624 19.291 9.81517 19.9102 9.91837L23.568 10.5261C25.9072 10.916 26.4576 12.613 24.772 14.2872L21.9283 17.1309C21.4467 17.6125 21.1829 18.5413 21.332 19.2064L22.1462 22.7266C22.7883 25.513 21.3091 26.5909 18.8438 25.1346L15.4152 23.105C14.796 22.7381 13.7755 22.7381 13.1448 23.105L9.71628 25.1346C7.26242 26.5909 5.77175 25.5016 6.41388 22.7266L7.22802 19.2064C7.37708 18.5413 7.11335 17.6125 6.63175 17.1309L3.78802 14.2872C2.11388 12.613 2.65282 10.916 4.99202 10.5261L8.64988 9.91837C9.25762 9.81517 9.99148 9.27624 10.2667 8.71437L12.2848 4.67811C13.3856 2.48797 15.1744 2.48797 16.2638 4.67811Z" stroke="currentColor" stroke-width="1.43333" stroke-linecap="round" stroke-linejoin="round"/>
</svg>
