<svg width="30" height="30" viewBox="0 0 30 30" fill="none" xmlns="http://www.w3.org/2000/svg">
<path d="M6.71463 29.3748C6.38595 29.3748 6.05955 29.2723 5.781 29.0709C5.26211 28.6948 5.01972 28.0484 5.16094 27.4247L7.09092 18.9231L0.545655 13.1831C0.0645339 12.7631 -0.119263 12.0979 0.0782672 11.4893C0.275797 10.8819 0.813225 10.4518 1.44953 10.393L10.1097 9.60673L13.5336 1.59406C13.7861 1.00537 14.3611 0.625183 14.9999 0.625183C15.6387 0.625183 16.2137 1.00537 16.4662 1.59269L19.8901 9.60673L28.5489 10.393C29.1866 10.4504 29.724 10.8819 29.9215 11.4893C30.1191 12.0968 29.9364 12.7631 29.4553 13.1831L22.91 18.922L24.84 27.4233C24.9815 28.0484 24.7388 28.6948 24.2202 29.0697C23.7027 29.4446 23.0126 29.4735 22.4676 29.1459L14.9999 24.6833L7.53222 29.1485C7.27975 29.2984 6.99845 29.3748 6.71463 29.3748ZM14.9999 22.7609C15.2837 22.7609 15.5648 22.8371 15.8175 22.987L22.8652 27.2022L21.0437 19.1781C20.9137 18.607 21.1075 18.0108 21.5488 17.6244L27.729 12.2044L19.5525 11.4619C18.9638 11.4081 18.4575 11.038 18.2274 10.4955L14.9999 2.93397L11.7685 10.4966C11.541 11.0354 11.0347 11.4056 10.4473 11.4593L2.26964 12.2019L8.4496 17.6219C8.89227 18.0094 9.0859 18.6045 8.95475 19.177L7.13464 27.2008L14.1823 22.987C14.4348 22.8371 14.7161 22.7609 14.9999 22.7609ZM10.0436 9.76168C10.0436 9.76168 10.0436 9.76306 10.0422 9.7642L10.0436 9.76168ZM19.9537 9.75802L19.9551 9.76054C19.9551 9.75917 19.9551 9.75917 19.9537 9.75802Z" fill="#000"/>
</svg>
