<svg width="35" height="35" viewBox="0 0 35 35" fill="none" xmlns="http://www.w3.org/2000/svg">
<path d="M22.1219 12.4493H12.878C12.6567 12.4493 12.475 12.6229 12.475 12.8477V22.1918C12.475 22.4119 12.6556 22.5924 12.878 22.5924H22.1219C22.3432 22.5924 22.5226 22.4131 22.5226 22.1918V12.8477C22.5214 12.6241 22.3432 12.4493 22.1219 12.4493Z" fill="#FF0000"/>
<path d="M17.5012 0C7.83679 0 0 7.83446 0 17.5012C0 27.1679 7.83679 35.0023 17.5012 35.0023C27.1667 35.0023 35 27.1679 35 17.5012C35 7.83446 27.1667 0 17.5012 0ZM17.5012 32.0787C9.45005 32.0787 2.92249 25.5511 2.92249 17.5012C2.92249 9.44772 9.45005 2.92133 17.5012 2.92133C25.5534 2.92133 32.0775 9.44772 32.0775 17.5012C32.0775 25.5511 25.5534 32.0787 17.5012 32.0787Z" fill="#FF0000"/>
</svg>