<svg width="30" height="30" viewBox="0 0 30 30" fill="none" xmlns="http://www.w3.org/2000/svg">
<path d="M14.9956 1.75781C18.0146 1.75781 20.89 2.77447 23.2062 4.60893L22.3429 5.47225C22.1075 5.70768 22.0253 6.05584 22.1306 6.37166C22.2359 6.68754 22.5105 6.91676 22.8401 6.96381L26.1213 7.43256C26.1628 7.43848 26.2044 7.44135 26.2457 7.44135C26.4771 7.44135 26.7011 7.34988 26.8671 7.18389C27.0627 6.9883 27.1548 6.71197 27.1157 6.43811L26.6469 3.15686C26.5999 2.82727 26.3706 2.55264 26.0548 2.44734C25.7389 2.34229 25.3908 2.4242 25.1554 2.65969L24.4567 3.35842C21.8061 1.1993 18.4856 0 14.9956 0C10.989 0 7.22215 1.56029 4.38897 4.39336C1.55584 7.22654 -0.00439453 10.9934 -0.00439453 15C-0.00439453 15.4854 0.389121 15.8789 0.874512 15.8789C1.3599 15.8789 1.75342 15.4854 1.75342 15C1.75342 7.69822 7.69383 1.75781 14.9956 1.75781Z" fill="white"/>
<path d="M29.1168 14.1211C28.6314 14.1211 28.2379 14.5146 28.2379 15C28.2379 22.3018 22.2974 28.2422 14.9957 28.2422C11.9767 28.2422 9.10131 27.2255 6.78504 25.3911L7.64836 24.5278C7.88379 24.2923 7.96594 23.9442 7.8607 23.6283C7.75541 23.3125 7.48072 23.0832 7.15119 23.0362L3.86994 22.5674C3.59637 22.5286 3.31981 22.6204 3.12416 22.8161C2.92852 23.0116 2.83641 23.288 2.87555 23.5618L3.3443 26.8431C3.39135 27.1727 3.62063 27.4473 3.93639 27.5526C4.0275 27.5829 4.12125 27.5977 4.21424 27.5977C4.44369 27.5977 4.66834 27.5078 4.8358 27.3403L5.53453 26.6415C8.1852 28.8007 11.5056 30 14.9957 30C19.0023 30 22.7691 28.4397 25.6023 25.6066C28.4354 22.7735 29.9957 19.0066 29.9957 15C29.9957 14.5146 29.6022 14.1211 29.1168 14.1211Z" fill="white"/>
<path d="M20.269 8.96484H18.8566L17.6786 6.21621C17.5397 5.89336 17.2222 5.68359 16.8706 5.68359H13.1206C12.769 5.68359 12.4515 5.89336 12.3126 6.21621L11.1346 8.96484H9.72217C8.26846 8.96484 7.08545 10.1479 7.08545 11.6016V19.3359C7.08545 20.7896 8.26846 21.9727 9.72217 21.9727H20.269C21.7228 21.9727 22.9058 20.7896 22.9058 19.3359V11.6016C22.9058 10.1479 21.7228 8.96484 20.269 8.96484ZM14.9956 19.6289C12.7017 19.6289 10.8354 17.7626 10.8354 15.4688C10.8354 13.1749 12.7017 11.3086 14.9956 11.3086C17.2895 11.3086 19.1558 13.1749 19.1558 15.4688C19.1558 17.7626 17.2895 19.6289 14.9956 19.6289Z" fill="white"/>
</svg>