<svg width="20" height="20" viewBox="0 0 20 20" fill="none" xmlns="http://www.w3.org/2000/svg">
<path fill-rule="evenodd" clip-rule="evenodd" d="M9.39538 10.2934L8.36167 9.29793C8.3098 9.24491 8.2478 9.20283 8.17937 9.1742C8.11094 9.14557 8.03745 9.13097 7.96327 9.13127C7.88909 9.13156 7.81572 9.14674 7.74752 9.17591C7.67931 9.20508 7.61765 9.24765 7.5662 9.30108C7.51474 9.35452 7.47454 9.41774 7.44796 9.487C7.42139 9.55626 7.40899 9.63015 7.41149 9.70429C7.414 9.77844 7.43136 9.85132 7.46255 9.91863C7.49374 9.98594 7.53812 10.0463 7.59306 10.0961L9.01787 11.4686C9.12223 11.5697 9.26216 11.6256 9.40743 11.6243C9.5527 11.6231 9.69164 11.5647 9.79421 11.4618L12.4813 8.77455C12.5853 8.67059 12.6437 8.52959 12.6437 8.38256C12.6437 8.23554 12.5853 8.09453 12.4813 7.99057C12.3774 7.88661 12.2364 7.8282 12.0894 7.8282C11.9424 7.8282 11.8014 7.88661 11.6974 7.99057L9.39549 10.2934H9.39538ZM10.0713 0.266602C10.3975 0.275614 10.7079 0.409165 10.9387 0.639838L12.074 1.77603C12.0942 1.79897 12.1207 1.81546 12.1502 1.82343C12.1797 1.83141 12.2109 1.83053 12.2399 1.82089L13.7919 1.4052C14.1199 1.31748 14.4692 1.36354 14.7632 1.53325C15.0572 1.70296 15.2718 1.98243 15.3598 2.31028L15.7755 3.86235C15.7817 3.89214 15.7965 3.91947 15.818 3.94098C15.8395 3.96249 15.8668 3.97724 15.8966 3.98341L17.4493 4.39915C17.7769 4.48759 18.056 4.70227 18.2257 4.99616C18.3953 5.29005 18.4416 5.63919 18.3543 5.96711L17.9378 7.51918C17.9285 7.54822 17.9278 7.57933 17.9357 7.60876C17.9437 7.6382 17.96 7.66471 17.9826 7.68511L19.1186 8.82123C19.3585 9.06134 19.4932 9.38687 19.4932 9.72629C19.4932 10.0657 19.3585 10.3912 19.1186 10.6314L17.9825 11.7675C17.9598 11.788 17.9435 11.8145 17.9356 11.8439C17.9276 11.8733 17.9283 11.9045 17.9376 11.9335L18.3542 13.4856C18.4414 13.8135 18.3952 14.1627 18.2255 14.4565C18.0559 14.7504 17.7767 14.9651 17.4491 15.0536L15.8965 15.4693C15.8667 15.4754 15.8393 15.4902 15.8178 15.5117C15.7963 15.5332 15.7816 15.5605 15.7754 15.5903L15.3597 17.1424C15.2716 17.4703 15.057 17.7497 14.763 17.9194C14.469 18.0891 14.1197 18.1352 13.7918 18.0475L12.2398 17.6318C12.2108 17.6221 12.1796 17.6212 12.1501 17.6292C12.1206 17.6372 12.0941 17.6537 12.0739 17.6766L10.9386 18.8124C10.6982 19.052 10.3726 19.1866 10.0331 19.1866C9.6937 19.1866 9.3681 19.052 9.1277 18.8124L7.9917 17.6762C7.97159 17.6534 7.94522 17.637 7.91588 17.629C7.88653 17.621 7.85549 17.6218 7.8266 17.6313L6.27434 18.047C5.94643 18.1347 5.59713 18.0886 5.30316 17.9189C5.00919 17.7492 4.7946 17.4698 4.70652 17.142L4.29077 15.5899C4.2846 15.5601 4.26982 15.5327 4.24828 15.5112C4.22673 15.4897 4.19936 15.475 4.16953 15.4688L2.61753 15.0531C2.28985 14.9648 2.01056 14.7501 1.84085 14.4562C1.67115 14.1623 1.62489 13.8131 1.7122 13.4851L2.12824 11.9332C2.13788 11.9042 2.13878 11.8731 2.13083 11.8435C2.12288 11.814 2.10643 11.7875 2.08353 11.7673L0.947689 10.6312C0.707914 10.3911 0.573242 10.0656 0.573242 9.72618C0.573242 9.3868 0.707914 9.06129 0.947689 8.82111L2.08398 7.68492C2.10675 7.66461 2.12308 7.63808 2.13096 7.60859C2.13884 7.57911 2.13792 7.54797 2.12832 7.519L1.71227 5.96693C1.62497 5.63896 1.67124 5.28976 1.84094 4.99585C2.01065 4.70195 2.28993 4.4873 2.61761 4.39896L4.16961 3.98323C4.19943 3.9771 4.22681 3.96236 4.24835 3.94085C4.2699 3.91934 4.28467 3.89198 4.29085 3.86217L4.7066 2.31028C4.79471 1.98248 5.00931 1.70306 5.30327 1.53336C5.59722 1.36366 5.9465 1.31757 6.27442 1.4052L7.82667 1.82089C7.85555 1.83053 7.88663 1.83141 7.91601 1.82342C7.94538 1.81544 7.97175 1.79895 7.99178 1.77603L9.12792 0.639986C9.3587 0.409278 9.66904 0.275674 9.99523 0.266602H10.0713ZM10.0328 13.8502C9.21722 13.8502 8.4199 13.6083 7.74173 13.1552C7.06356 12.702 6.535 12.0579 6.22287 11.3043C5.91074 10.5508 5.82907 9.72155 5.98819 8.92155C6.14732 8.12156 6.54008 7.38672 7.11682 6.80996C7.69355 6.23319 8.42836 5.84041 9.22831 5.68128C10.0283 5.52215 10.8574 5.60383 11.611 5.91597C12.3645 6.22811 13.0086 6.7567 13.4617 7.43491C13.9149 8.11311 14.1567 8.91046 14.1567 9.72612C14.1556 10.8196 13.7208 11.8679 12.9476 12.641C12.1745 13.4142 11.1262 13.8491 10.0328 13.8502Z" fill="#2196F3"/>
</svg>