<svg width="27" height="18" viewBox="0 0 27 18" fill="none" xmlns="http://www.w3.org/2000/svg">
<path fill-rule="evenodd" clip-rule="evenodd" d="M15.0625 16.9722H4.125C2.39861 16.9722 1 15.5736 1 13.8472V4.125C1 2.39861 2.39861 1 4.125 1H15.0625C16.7889 1 18.1875 2.39861 18.1875 4.125V13.8472C18.1875 15.5736 16.7889 16.9722 15.0625 16.9722Z" fill="#02AEAE" stroke="#02AEAE" stroke-width="1.72" stroke-linecap="round" stroke-linejoin="round"/>
<path fill-rule="evenodd" clip-rule="evenodd" d="M18.1875 10.5099L23.4583 14.7516C24.4806 15.5752 26 14.8474 26 13.5349V4.4377C26 3.1252 24.4806 2.39742 23.4583 3.22103L18.1875 7.4627" fill="#02AEAE"/>
<path d="M18.1875 10.5099L23.4583 14.7516C24.4806 15.5752 26 14.8474 26 13.5349V4.4377C26 3.1252 24.4806 2.39742 23.4583 3.22103L18.1875 7.4627" stroke="#02AEAE" stroke-width="1.72" stroke-linecap="round" stroke-linejoin="round"/>
</svg>