<svg width="25" height="17" viewBox="0 0 25 17" fill="none" xmlns="http://www.w3.org/2000/svg">
<path fill-rule="evenodd" clip-rule="evenodd" d="M13.9 15.6519H3.86667C2.28299 15.6519 1 14.3689 1 12.7852V3.86667C1 2.28299 2.28299 1 3.86667 1H13.9C15.4837 1 16.7667 2.28299 16.7667 3.86667V12.7852C16.7667 14.3689 15.4837 15.6519 13.9 15.6519Z" fill="white" stroke="white" stroke-width="1.72" stroke-linecap="round" stroke-linejoin="round"/>
<path fill-rule="evenodd" clip-rule="evenodd" d="M16.7667 9.72376L21.6018 13.6148C22.5395 14.3703 23.9333 13.7027 23.9333 12.4987V4.15351C23.9333 2.94951 22.5395 2.28189 21.6018 3.03742L16.7667 6.92844" fill="white"/>
<path d="M16.7667 9.72376L21.6018 13.6148C22.5395 14.3703 23.9333 13.7027 23.9333 12.4987V4.15351C23.9333 2.94951 22.5395 2.28189 21.6018 3.03742L16.7667 6.92844" stroke="white" stroke-width="1.72" stroke-linecap="round" stroke-linejoin="round"/>
</svg>