<svg width="25" height="25" viewBox="0 0 25 25" fill="none" xmlns="http://www.w3.org/2000/svg">
<circle cx="12.5" cy="12.5" r="12" stroke="url(#paint0_linear_1026_2333)"/>
<path d="M9.21657 11.8343L7 13.0008C7 13.0008 7.0369 10.3475 7.06215 9.00135C7.0874 7.65516 7.81912 7.00159 9.21657 7.00162H16.0113C16.726 6.97981 16.9218 7.1769 17.1714 7.6682L14.1883 9.168H9.87947C9.42777 9.21053 9.29293 9.32821 9.21657 9.66793V11.8343Z" fill="#31A08A"/>
<path d="M9.87947 13.5007L7 15.1672V19H8.55367C9.0847 18.9874 9.18839 18.8169 9.21657 18.3334V16.0004H15.6798C17.6364 16.0052 17.988 15.6677 18 14.1673V9.33464L15.6798 10.5011V12.8342C15.6945 13.2223 15.5141 13.5007 15.0169 13.5007H9.87947Z" fill="#31A08A"/>
<defs>
<linearGradient id="paint0_linear_1026_2333" x1="3.91155e-08" y1="15" x2="21.25" y2="12.5" gradientUnits="userSpaceOnUse">
<stop stop-color="#31A08A"/>
<stop offset="1" stop-color="#63E6CC"/>
</linearGradient>
</defs>
</svg>