<svg width="25" height="25" viewBox="0 0 25 25" fill="none" xmlns="http://www.w3.org/2000/svg">
<path d="M13.2 11.3V8.5H15.3C15.4857 8.5 15.6637 8.42625 15.795 8.29497C15.9263 8.1637 16 7.98565 16 7.8C16 7.61435 15.9263 7.4363 15.795 7.30503C15.6637 7.17375 15.4857 7.1 15.3 7.1H13.2V5.7C13.2 5.51435 13.1262 5.3363 12.995 5.20503C12.8637 5.07375 12.6857 5 12.5 5C12.3143 5 12.1363 5.07375 12.005 5.20503C11.8737 5.3363 11.8 5.51435 11.8 5.7V7.1C11.0574 7.1 10.3452 7.395 9.8201 7.9201C9.295 8.4452 9 9.15739 9 9.9C9 10.6426 9.295 11.3548 9.8201 11.8799C10.3452 12.405 11.0574 12.7 11.8 12.7V15.5H9.7C9.51435 15.5 9.3363 15.5737 9.20503 15.705C9.07375 15.8363 9 16.0143 9 16.2C9 16.3857 9.07375 16.5637 9.20503 16.695C9.3363 16.8263 9.51435 16.9 9.7 16.9H11.8V18.3C11.8 18.4857 11.8737 18.6637 12.005 18.795C12.1363 18.9263 12.3143 19 12.5 19C12.6857 19 12.8637 18.9263 12.995 18.795C13.1262 18.6637 13.2 18.4857 13.2 18.3V16.9C13.9426 16.9 14.6548 16.605 15.1799 16.0799C15.705 15.5548 16 14.8426 16 14.1C16 13.3574 15.705 12.6452 15.1799 12.1201C14.6548 11.595 13.9426 11.3 13.2 11.3ZM10.4 9.9C10.4 9.5287 10.5475 9.1726 10.8101 8.91005C11.0726 8.6475 11.4287 8.5 11.8 8.5V11.3C11.4287 11.3 11.0726 11.1525 10.8101 10.8899C10.5475 10.6274 10.4 10.2713 10.4 9.9ZM13.2 15.5V12.7C13.5713 12.7 13.9274 12.8475 14.1899 13.1101C14.4525 13.3726 14.6 13.7287 14.6 14.1C14.6 14.4713 14.4525 14.8274 14.1899 15.0899C13.9274 15.3525 13.5713 15.5 13.2 15.5Z" fill="url(#paint0_linear_1026_2338)"/>
<circle cx="12.5" cy="12.5" r="12" stroke="url(#paint1_linear_1026_2338)"/>
<defs>
<linearGradient id="paint0_linear_1026_2338" x1="9" y1="13.4" x2="15.0116" y2="13.0464" gradientUnits="userSpaceOnUse">
<stop stop-color="#31A08A"/>
<stop offset="1" stop-color="#63E6CC"/>
</linearGradient>
<linearGradient id="paint1_linear_1026_2338" x1="3.91155e-08" y1="15" x2="21.25" y2="12.5" gradientUnits="userSpaceOnUse">
<stop stop-color="#31A08A"/>
<stop offset="1" stop-color="#63E6CC"/>
</linearGradient>
</defs>
</svg>