<svg width="12" height="16" viewBox="0 0 12 16" fill="none" xmlns="http://www.w3.org/2000/svg">
<g clip-path="url(#clip0_0_754)">
<path d="M7.54524 15.5H2.22738C0.999166 15.5 0 14.4486 0 13.1562V5.2168C0 3.92442 0.999166 2.87305 2.22738 2.87305H7.54524C8.77346 2.87305 9.77262 3.92442 9.77262 5.2168V13.1562C9.77262 14.4486 8.77346 15.5 7.54524 15.5ZM2.22738 4.04492C1.61333 4.04492 1.11369 4.57066 1.11369 5.2168V13.1562C1.11369 13.8024 1.61333 14.3281 2.22738 14.3281H7.54524C8.1593 14.3281 8.65893 13.8024 8.65893 13.1562V5.2168C8.65893 4.57066 8.1593 4.04492 7.54524 4.04492H2.22738ZM12 11.6914V2.84375C12 1.55137 11.0008 0.5 9.77262 0.5H3.59165C3.28408 0.5 3.0348 0.762299 3.0348 1.08594C3.0348 1.40958 3.28408 1.67188 3.59165 1.67188H9.77262C10.3867 1.67188 10.8863 2.19762 10.8863 2.84375V11.6914C10.8863 12.015 11.1356 12.2773 11.4432 12.2773C11.7507 12.2773 12 12.015 12 11.6914Z" fill="white"/>
</g>
<defs>
<clipPath id="clip0_0_754">
<rect width="12" height="15" fill="white" transform="translate(0 0.5)"/>
</clipPath>
</defs>
</svg>
