<svg width="12" height="11" viewBox="0 0 12 11" fill="none" xmlns="http://www.w3.org/2000/svg">
<path d="M9.99511 1.11611L1.79916 8.65579L1.79916 3.78302C1.80066 3.6966 1.78493 3.61074 1.7529 3.53045C1.72086 3.45017 1.67316 3.37707 1.61257 3.31542C1.55199 3.25377 1.47973 3.20481 1.40001 3.17138C1.3203 3.13796 1.23473 3.12074 1.14829 3.12074C1.06185 3.12074 0.976276 3.13796 0.896562 3.17138C0.816848 3.20481 0.744589 3.25377 0.684002 3.31542C0.623414 3.37707 0.575711 3.45017 0.543676 3.53045C0.511641 3.61074 0.495917 3.6966 0.497419 3.78302L0.497419 10.2273C0.497446 10.3999 0.566028 10.5654 0.688084 10.6875C0.810139 10.8095 0.975675 10.8781 1.14829 10.8781L7.59254 10.8781C7.7632 10.8752 7.92587 10.8053 8.04551 10.6836C8.16515 10.5618 8.23219 10.398 8.23219 10.2273C8.23219 10.0566 8.16515 9.89272 8.04551 9.77098C7.92587 9.64924 7.7632 9.57937 7.59253 9.5764L2.71976 9.5764L10.9157 2.03672C11.0378 1.91464 11.1064 1.74906 11.1064 1.57642C11.1064 1.40377 11.0378 1.23819 10.9157 1.11611C10.7936 0.994034 10.6281 0.92545 10.4554 0.92545C10.2828 0.92545 10.1172 0.994033 9.99511 1.11611Z" fill="#FF0000"/>
</svg>