<svg width="11" height="11" viewBox="0 0 11 11" fill="none" xmlns="http://www.w3.org/2000/svg">
<path d="M1.26924 10.3481L9.46519 2.80844L9.46519 7.68121C9.46368 7.76764 9.47941 7.8535 9.51144 7.93378C9.54348 8.01406 9.59118 8.08716 9.65177 8.14881C9.71236 8.21046 9.78462 8.25943 9.86433 8.29285C9.94404 8.32628 10.0296 8.34349 10.1161 8.34349C10.2025 8.34349 10.2881 8.32628 10.3678 8.29285C10.4475 8.25943 10.5198 8.21046 10.5803 8.14881C10.6409 8.08716 10.6886 8.01406 10.7207 7.93378C10.7527 7.8535 10.7684 7.76764 10.7669 7.68121L10.7669 1.23697C10.7669 1.06435 10.6983 0.898816 10.5763 0.77676C10.4542 0.654704 10.2887 0.586122 10.1161 0.586096L3.67181 0.586095C3.50115 0.589061 3.33848 0.658939 3.21883 0.780678C3.09919 0.902416 3.03215 1.06628 3.03215 1.23696C3.03215 1.40765 3.09919 1.57151 3.21884 1.69325C3.33848 1.81499 3.50115 1.88487 3.67181 1.88783L8.54458 1.88783L0.348631 9.42751C0.22655 9.54959 0.157967 9.71517 0.157967 9.88782C0.157967 10.0605 0.226551 10.226 0.348631 10.3481C0.470711 10.4702 0.636287 10.5388 0.808934 10.5388C0.981581 10.5388 1.14716 10.4702 1.26924 10.3481Z" fill="#008000"/>
</svg>