<svg width="17" height="8" viewBox="0 0 17 8" fill="none" xmlns="http://www.w3.org/2000/svg">
<path d="M10.233 1.0192L4.41201 6.86295C4.31087 6.96113 4.17567 7.01602 4.03497 7.01602C3.89427 7.01602 3.75908 6.96113 3.65793 6.86295L0.747423 3.94107C0.663038 3.83785 0.619914 3.70682 0.626439 3.57344C0.632964 3.44007 0.688671 3.31391 0.782725 3.21948C0.87678 3.12506 1.00246 3.06914 1.13531 3.06259C1.26816 3.05604 1.39869 3.09933 1.50151 3.18404L4.03497 5.73404L9.47894 0.262169C9.58176 0.177454 9.71229 0.134161 9.84514 0.140711C9.97799 0.147262 10.1037 0.203187 10.1977 0.297608C10.2918 0.39203 10.3475 0.518197 10.354 0.651569C10.3605 0.78494 10.3174 0.91598 10.233 1.0192ZM16.3186 0.262169C16.2183 0.16241 16.0828 0.106445 15.9416 0.106445C15.8004 0.106445 15.6649 0.16241 15.5645 0.262169L10.1206 5.73404L8.94976 4.55865C8.84909 4.46709 8.71721 4.41789 8.58141 4.42125C8.44561 4.4246 8.3163 4.48026 8.22025 4.57668C8.12419 4.67311 8.06876 4.80293 8.06541 4.93926C8.06207 5.07559 8.11108 5.20799 8.20229 5.30904L9.74353 6.86295C9.84468 6.96113 9.97987 7.01602 10.1206 7.01602C10.2613 7.01602 10.3965 6.96113 10.4976 6.86295L16.3186 1.0192C16.418 0.918478 16.4737 0.782447 16.4737 0.640684C16.4737 0.498921 16.418 0.36289 16.3186 0.262169Z" fill="#000"/>
</svg>