<svg width="17" height="17" viewBox="0 0 17 17" fill="none" xmlns="http://www.w3.org/2000/svg">
<path d="M8.5 0.5C4.08819 0.5 0.5 4.08819 0.5 8.5C0.5 12.9118 4.08819 16.5 8.5 16.5C12.9118 16.5 16.5 12.9118 16.5 8.5C16.5 4.08819 12.9118 0.5 8.5 0.5Z" fill="#02AEAE" stroke="white"/>
<path d="M12.3013 6.91064L8.23873 10.9731C8.11685 11.0949 7.95686 11.1563 7.79688 11.1563C7.63689 11.1563 7.4769 11.0949 7.35502 10.9731L5.32381 8.94186C5.07936 8.69753 5.07936 8.30247 5.32381 8.05814C5.56814 7.8137 5.96307 7.8137 6.20752 8.05814L7.79688 9.6475L11.4176 6.02693C11.6619 5.78249 12.0568 5.78249 12.3013 6.02693C12.5456 6.27126 12.5456 6.6662 12.3013 6.91064Z" fill="#FAFAFA"/>
</svg>