<svg width="11" height="11" viewBox="0 0 11 11" fill="none" xmlns="http://www.w3.org/2000/svg">
<path d="M10.9072 3.91149C10.8413 3.70019 10.6617 3.5506 10.4501 3.53061L7.5634 3.25714L6.42256 0.469986C6.33833 0.265217 6.14668 0.133057 5.93336 0.133057C5.72003 0.133057 5.52831 0.265217 5.44461 0.469986L4.30377 3.25714L1.41661 3.53061C1.20497 3.55099 1.02575 3.70059 0.959525 3.91149C0.893682 4.12279 0.954489 4.35454 1.11456 4.50104L3.29667 6.49769L2.65328 9.45474C2.6062 9.67217 2.68708 9.897 2.85996 10.0274C2.95289 10.0979 3.06207 10.1331 3.17163 10.1331C3.26577 10.1331 3.36 10.1069 3.44415 10.0544L5.93336 8.50127L8.4221 10.0544C8.60468 10.1682 8.83425 10.1578 9.00675 10.0274C9.17964 9.897 9.26051 9.67217 9.21344 9.45474L8.57004 6.49769L10.7522 4.50104C10.9121 4.35454 10.973 4.12326 10.9072 3.91149Z" fill="#8A91A8"/>
</svg>